<!DOCTYPE svg PUBLIC "-//W3C//DTD SVG 20010904//EN" "http://www.w3.org/TR/2001/REC-SVG-20010904/DTD/svg10.dtd">
<svg version="1.0" xmlns="http://www.w3.org/2000/svg" width="300px" height="120px" viewBox="0 0 3000 1200" preserveAspectRatio="xMidYMid meet">
<g id="layer101" fill="#202027" stroke="none">
 <path d="M0 600 l0 -600 1500 0 1500 0 0 600 0 600 -1500 0 -1500 0 0 -600z"/>
 </g>
<g id="layer102" fill="#302931" stroke="none">
 <path d="M0 600 l0 -600 1500 0 1500 0 0 600 0 600 -1500 0 -1500 0 0 -600z m448 111 c3 -21 -11 -40 -29 -41 -10 0 -21 49 -13 61 11 18 39 5 42 -20z m232 -12 c0 -22 -5 -29 -20 -29 -11 0 -20 2 -20 4 0 2 -3 11 -6 19 -6 17 23 50 37 42 5 -4 9 -19 9 -36z m1612 -12 c-1 -8 2 -18 8 -22 16 -10 12 -22 -10 -28 -18 -5 -22 -1 -19 19 0 4 -5 11 -13 15 -10 7 -10 9 0 9 6 0 11 3 11 8 -3 17 2 23 14 19 6 -2 11 -11 9 -20z m248 4 c7 -14 7 -22 -2 -27 -7 -5 -8 -3 -3 6 5 8 4 11 -3 7 -5 -4 -8 -16 -5 -27 4 -16 2 -19 -11 -14 -10 4 -15 13 -12 20 3 7 1 16 -4 19 -13 8 -1 35 16 35 7 0 18 -9 24 -19z"/>
 </g>
<g id="layer103" fill="#4d333a" stroke="none">
 <path d="M0 600 l0 -600 1500 0 1500 0 0 600 0 600 -1500 0 -1500 0 0 -600z m2414 198 c-3 -4 -12 -8 -20 -8 -12 0 -12 4 -2 20 8 13 15 16 19 8 4 -7 5 -16 3 -20z m-1966 -85 c-2 -30 -7 -38 -23 -38 -24 0 -33 38 -15 61 24 28 41 17 38 -23z m230 -9 c2 -21 -2 -33 -12 -37 -20 -8 -39 27 -31 54 10 31 39 19 43 -17z m-201 4 c-3 -8 -6 -5 -6 6 -1 11 2 17 5 13 3 -3 4 -12 1 -19z m1828 -38 c0 -32 -3 -35 -33 -38 -30 -3 -32 -2 -23 16 6 11 8 22 4 25 -13 13 8 38 29 35 19 -2 23 -9 23 -38z m241 13 c3 -16 8 -34 10 -41 3 -10 -5 -12 -29 -10 -26 2 -32 8 -34 28 -3 37 4 50 26 50 14 0 23 -9 27 -27z m-2161 -13 c3 -5 4 -10 1 -10 -3 0 -8 5 -11 10 -3 6 -4 10 -1 10 3 0 8 -4 11 -10z m984 -118 c10 -19 -7 -52 -27 -52 -16 0 -33 36 -26 54 8 21 41 20 53 -2z m227 4 c16 -17 9 -43 -17 -56 -24 -13 -30 -13 -26 3 1 6 -3 11 -10 10 -7 -2 -10 4 -8 12 3 8 7 22 10 30 6 19 32 19 51 1z"/>
 </g>
<g id="layer104" fill="#4f4041" stroke="none">
 <path d="M0 600 l0 -600 1500 0 1500 0 0 600 0 600 -1500 0 -1500 0 0 -600z m2431 199 c9 -6 2 -9 -23 -9 -36 0 -37 1 -20 18 9 10 20 14 23 9 4 -5 13 -13 20 -18z m-1979 -67 c3 -10 1 -28 -3 -41 -11 -29 -43 -24 -47 7 -6 42 40 73 50 34z m227 -14 c9 -24 -2 -58 -19 -58 -15 0 -32 39 -25 60 9 27 34 25 44 -2z m-202 -10 c-3 -8 -6 -5 -6 6 -1 11 2 17 5 13 3 -3 4 -12 1 -19z m1834 -28 c8 -34 -7 -50 -47 -50 -18 0 -36 6 -40 13 -4 6 -4 9 1 5 11 -10 37 11 29 24 -11 18 6 39 28 36 14 -2 25 -12 29 -28z m26 13 c-4 -3 -7 0 -7 7 0 7 3 10 7 7 3 -4 3 -10 0 -14z m209 -10 c3 -16 7 -34 10 -40 5 -19 -51 -16 -66 2 -9 11 -9 15 -1 15 7 0 9 5 6 10 -11 18 3 40 24 40 14 0 23 -9 27 -27z m-2161 -13 c3 -5 4 -10 1 -10 -3 0 -8 5 -11 10 -3 6 -4 10 -1 10 3 0 8 -4 11 -10z m85 6 c0 -3 -5 -8 -12 -12 -7 -4 -8 -3 -4 4 7 12 16 16 16 8z m1127 -119 c13 -10 14 -59 1 -51 -4 3 -8 -2 -8 -10 0 -19 -9 -20 -44 -6 -30 11 -33 35 -11 67 15 22 34 22 62 0z m-221 -4 c24 -33 12 -63 -25 -63 -16 0 -53 39 -46 49 3 6 0 11 -7 11 -9 0 -9 3 2 10 24 15 62 12 76 -7z"/>
 <path d="M1543 503 c4 -3 10 -3 14 0 3 4 0 7 -7 7 -7 0 -10 -3 -7 -7z"/>
 </g>
<g id="layer105" fill="#725450" stroke="none">
 <path d="M0 600 l0 -600 1500 0 1500 0 0 600 0 600 -1500 0 -1500 0 0 -600z m1407 323 c-4 -3 -10 -3 -14 0 -3 4 0 7 7 7 7 0 10 -3 7 -7z m136 0 c-7 -2 -21 -2 -30 0 -10 3 -4 5 12 5 17 0 24 -2 18 -5z m907 -157 c0 -5 -6 -2 -13 9 -19 25 -66 13 -68 -18 l-2 -22 -4 23 c-3 13 5 33 19 50 l23 29 23 -31 c12 -16 22 -34 22 -40z m-1996 -42 c8 -30 -8 -54 -35 -54 -15 0 -19 7 -19 33 0 38 6 47 31 47 10 0 19 -11 23 -26z m231 -4 c7 -23 -12 -63 -28 -57 -7 2 -17 19 -24 38 -7 19 -12 28 -12 22 -1 -7 -6 -13 -12 -13 -26 0 11 26 40 28 22 2 31 -3 36 -18z m-215 -41 c-10 -22 -19 -29 -40 -29 -43 0 -60 10 -59 34 1 16 2 17 6 4 11 -44 81 -32 90 15 4 17 8 26 11 19 2 -7 -1 -26 -8 -43z m1837 17 c14 -16 18 -28 11 -39 -15 -27 -44 -38 -72 -27 -26 9 -37 32 -14 28 6 -2 14 6 16 17 5 22 21 45 31 45 4 0 17 -11 28 -24z m231 12 c5 -7 12 -22 14 -33 2 -11 10 -19 16 -17 7 1 12 -3 12 -8 0 -17 -48 -30 -73 -21 -24 9 -55 66 -43 78 3 3 6 -1 6 -10 0 -23 12 -21 28 3 14 23 25 25 40 8z m-201 -15 c-4 -3 -7 0 -7 7 0 7 3 10 7 7 3 -4 3 -10 0 -14z m-1628 -34 c-22 -14 -33 -10 -19 6 7 8 17 12 22 9 6 -4 5 -10 -3 -15z m674 -110 c22 -21 10 -53 -23 -62 -29 -7 -80 37 -73 63 3 11 8 18 12 16 4 -3 13 -1 21 4 16 10 38 2 63 -21z m217 11 c26 -26 25 -44 -1 -69 -20 -18 -24 -19 -50 -6 -37 20 -39 25 -24 63 16 38 45 42 75 12z m1090 -20 c0 -5 -2 -10 -4 -10 -3 0 -8 5 -11 10 -3 6 -1 10 4 10 6 0 11 -4 11 -10z"/>
 <path d="M2483 663 c4 -3 10 -3 14 0 3 4 0 7 -7 7 -7 0 -10 -3 -7 -7z"/>
 </g>
<g id="layer106" fill="#6c635e" stroke="none">
 <path d="M0 600 l0 -600 1500 0 1500 0 0 600 0 600 -1500 0 -1500 0 0 -600z m1417 324 c-3 -3 -12 -4 -19 -1 -8 3 -5 6 6 6 11 1 17 -2 13 -5z m148 -4 c13 -6 2 -7 -30 -3 -27 3 -52 7 -54 9 -9 8 65 2 84 -6z m848 -78 c-2 -10 5 -26 16 -36 12 -11 21 -29 21 -42 0 -19 15 -67 27 -83 1 -2 11 7 22 20 16 20 21 21 34 10 9 -7 17 -22 19 -34 2 -12 9 -21 16 -20 22 5 12 -17 -12 -27 -41 -15 -66 -1 -92 53 -13 28 -24 56 -24 64 0 14 -27 30 -50 29 -8 -1 -16 -11 -18 -23 -2 -13 -7 -23 -12 -23 -16 0 2 64 22 78 10 7 18 22 18 33 0 10 4 19 9 19 5 0 7 -8 4 -18z m-1959 -118 c8 -30 -8 -54 -35 -54 -15 0 -19 7 -19 33 0 38 6 47 31 47 10 0 19 -11 23 -26z m232 -10 c5 -18 1 -31 -10 -42 -16 -16 -18 -16 -32 2 -8 11 -14 29 -15 40 0 12 -3 15 -6 9 -2 -7 -9 -13 -15 -13 -25 0 13 26 41 28 25 2 32 -2 37 -24z m-216 -35 c-10 -22 -19 -29 -40 -29 -43 0 -60 10 -59 34 1 16 2 17 6 4 11 -44 81 -32 90 15 4 17 8 26 11 19 2 -7 -1 -26 -8 -43z m1837 17 c36 -41 -9 -85 -67 -65 -29 11 -33 24 -7 24 7 0 13 9 15 20 5 22 20 45 31 45 4 0 17 -11 28 -24z m30 -3 c-4 -3 -7 0 -7 7 0 7 3 10 7 7 3 -4 3 -10 0 -14z m-1628 -34 c-22 -14 -33 -10 -19 6 7 8 17 12 22 9 6 -4 5 -10 -3 -15z m666 -95 c44 -29 27 -84 -24 -84 -32 0 -45 8 -60 38 -27 50 30 81 84 46z m233 -3 c29 -25 28 -42 -3 -71 -24 -23 -26 -23 -60 -7 -39 19 -41 26 -20 67 18 35 49 39 83 11z m1089 -18 c19 -44 28 -107 14 -99 -6 4 -11 16 -11 26 0 10 -9 25 -19 32 -14 10 -18 21 -14 41 7 34 15 34 30 0z m-577 4 c0 -2 -10 -12 -21 -23 -22 -19 -22 -19 -10 4 10 18 31 31 31 19z m40 -23 c0 -9 -8 -23 -17 -31 -11 -8 -12 -11 -3 -7 12 6 13 5 3 -7 -7 -9 -9 -20 -3 -29 10 -17 -5 -40 -27 -40 -13 0 -13 -3 -3 -15 10 -12 9 -15 -4 -15 -10 0 -15 -4 -12 -9 5 -8 -3 -8 -34 -1 -3 0 4 7 15 16 14 11 17 17 8 22 -10 6 -9 14 2 36 8 16 15 35 15 44 0 20 29 52 47 52 7 0 13 -7 13 -16z m-471 -88 c-9 -8 -10 -7 -5 7 3 10 7 24 7 30 1 7 3 4 6 -7 3 -10 -1 -23 -8 -30z m1038 -43 c-4 -3 -7 0 -7 7 0 7 3 10 7 7 3 -4 3 -10 0 -14z m-1040 -15 c-3 -8 -6 -5 -6 6 -1 11 2 17 5 13 3 -3 4 -12 1 -19z m380 -65 c-4 -3 -7 0 -7 7 0 7 3 10 7 7 3 -4 3 -10 0 -14z m708 -3 c3 -5 4 -10 1 -10 -3 0 -8 5 -11 10 -3 6 -4 10 -1 10 3 0 8 -4 11 -10z"/>
 <path d="M2483 663 c4 -3 10 -3 14 0 3 4 0 7 -7 7 -7 0 -10 -3 -7 -7z"/>
 </g>
<g id="layer107" fill="#8c5b5a" stroke="none">
 <path d="M0 600 l0 -600 1500 0 1500 0 0 600 0 600 -1500 0 -1500 0 0 -600z m1418 323 c-10 -2 -26 -2 -35 0 -10 3 -2 5 17 5 19 0 27 -2 18 -5z m152 -3 c10 -6 -3 -7 -40 -3 -30 3 -57 7 -59 9 -10 9 85 3 99 -6z m704 -26 c-3 -29 -14 -46 -14 -21 0 8 -3 22 -6 31 -4 10 -1 16 9 16 9 0 13 -8 11 -26z m146 -39 c-12 -15 -4 -41 16 -49 8 -3 14 -18 14 -33 0 -15 4 -33 8 -39 9 -14 45 -27 37 -14 -3 6 -1 10 5 10 21 0 50 -21 50 -35 0 -8 7 -15 15 -15 8 0 15 -2 15 -4 0 -2 2 -11 6 -19 8 -22 -50 -43 -81 -29 -22 10 -75 102 -75 130 0 7 -3 12 -7 13 -5 0 -16 2 -25 4 -12 2 -19 -6 -23 -26 -4 -16 -12 -32 -18 -36 -7 -5 -20 -25 -29 -45 -11 -23 -27 -40 -42 -44 -32 -8 -87 21 -80 41 7 17 24 20 24 5 0 -5 5 -10 11 -10 5 0 7 5 3 11 -3 6 -1 21 6 34 10 19 20 23 53 22 40 -2 41 -1 50 36 5 20 18 42 28 48 23 12 25 35 3 47 -12 6 -8 9 15 9 23 0 28 -3 21 -12z m-1956 -155 c1 -40 -2 -45 -23 -48 -40 -6 -71 7 -71 29 0 21 1 21 20 -2 l20 -24 -9 25 c-13 39 3 72 35 68 25 -3 27 -7 28 -48z m216 29 c7 -11 9 -33 6 -47 -6 -25 -5 -26 8 -9 10 13 16 15 21 6 4 -6 1 -15 -6 -20 -20 -13 -77 -11 -85 3 -5 7 -3 8 6 3 10 -6 12 -4 7 9 -4 10 -7 27 -7 39 0 20 0 20 -15 1 -8 -10 -15 -15 -15 -10 0 17 33 46 51 46 10 0 23 -9 29 -21z m-190 -6 c0 -5 -5 -15 -10 -23 -8 -12 -10 -11 -10 8 0 12 5 22 10 22 6 0 10 -3 10 -7z m885 -159 c44 -29 27 -84 -24 -84 -32 0 -45 8 -60 38 -27 50 30 81 84 46z m233 -3 c29 -25 28 -42 -3 -71 -24 -23 -26 -23 -60 -7 -39 19 -41 26 -20 67 18 35 49 39 83 11z m1089 -8 c18 -43 27 -117 14 -109 -6 4 -11 16 -11 26 0 10 -8 25 -19 32 -13 10 -17 21 -14 46 6 39 14 41 30 5z m-592 -23 c-10 -11 -20 -18 -23 -15 -7 6 18 35 31 35 5 0 2 -9 -8 -20z m55 -6 c0 -9 -8 -23 -17 -31 -11 -8 -12 -11 -3 -7 12 6 13 5 3 -7 -7 -9 -9 -20 -3 -29 10 -17 -5 -40 -27 -40 -13 0 -13 -3 -3 -15 10 -12 9 -15 -4 -15 -10 0 -15 -4 -12 -9 5 -8 -3 -8 -34 -1 -3 0 4 7 15 16 14 11 17 17 8 22 -10 6 -9 14 2 36 8 16 15 35 15 44 0 20 29 52 47 52 7 0 13 -7 13 -16z m-1183 -61 c-4 -3 -7 0 -7 7 0 7 3 10 7 7 3 -4 3 -10 0 -14z m712 -27 c-9 -8 -10 -7 -5 7 3 10 7 24 7 30 1 7 3 4 6 -7 3 -10 -1 -23 -8 -30z m1038 -43 c-4 -3 -7 0 -7 7 0 7 3 10 7 7 3 -4 3 -10 0 -14z m-1040 -15 c-3 -8 -6 -5 -6 6 -1 11 2 17 5 13 3 -3 4 -12 1 -19z m380 -65 c-4 -3 -7 0 -7 7 0 7 3 10 7 7 3 -4 3 -10 0 -14z m709 -11 c-4 -3 -14 2 -24 12 -16 18 -16 18 6 6 13 -6 21 -14 18 -18z"/>
 <path d="M2306 707 c3 -10 9 -15 12 -12 3 3 0 11 -7 18 -10 9 -11 8 -5 -6z"/>
 </g>
<g id="layer108" fill="#8b685d" stroke="none">
 <path d="M0 600 l0 -600 1500 0 1500 0 0 600 0 600 -1500 0 -1500 0 0 -600z m1418 323 c-10 -2 -26 -2 -35 0 -10 3 -2 5 17 5 19 0 27 -2 18 -5z m152 -3 c10 -6 -3 -7 -40 -3 -30 3 -57 7 -59 9 -10 9 85 3 99 -6z m704 -26 c-3 -29 -14 -46 -14 -21 0 8 -3 22 -6 31 -4 10 -1 16 9 16 9 0 13 -8 11 -26z m146 -39 c-12 -15 -4 -41 16 -49 8 -3 14 -18 14 -33 0 -15 4 -33 8 -39 9 -14 45 -27 37 -14 -3 6 -1 10 5 10 21 0 50 -21 50 -35 0 -8 7 -15 15 -15 8 0 15 -2 15 -4 0 -2 2 -11 6 -19 8 -22 -50 -43 -81 -29 -22 10 -75 102 -75 129 0 6 -11 13 -25 15 -20 4 -25 0 -30 -23 -4 -16 -12 -32 -18 -36 -7 -5 -20 -25 -29 -45 -11 -23 -27 -40 -42 -44 -32 -8 -87 21 -80 41 7 17 24 20 24 5 0 -5 5 -10 11 -10 5 0 7 5 3 11 -3 6 -1 21 6 34 10 19 20 23 53 22 40 -2 41 -1 50 36 5 20 18 42 28 48 23 12 25 35 3 47 -12 6 -8 9 15 9 23 0 28 -3 21 -12z m-1860 -83 c0 -4 -9 -8 -20 -9 -11 -1 -18 2 -15 8 7 11 35 12 35 1z m-96 -72 c1 -40 -2 -45 -23 -48 -40 -6 -71 7 -71 29 0 21 1 21 20 -2 l20 -24 -9 25 c-13 39 3 72 35 68 25 -3 27 -7 28 -48z m216 29 c7 -11 9 -33 6 -47 -6 -25 -5 -26 8 -9 10 13 16 15 21 6 4 -6 1 -15 -6 -20 -20 -13 -77 -11 -85 3 -5 7 -3 8 6 3 10 -6 12 -4 7 9 -4 10 -7 27 -7 39 0 20 0 20 -15 1 -8 -10 -15 -15 -15 -10 0 17 33 46 51 46 10 0 23 -9 29 -21z m-190 -6 c0 -5 -5 -15 -10 -23 -8 -12 -10 -11 -10 8 0 12 5 22 10 22 6 0 10 -3 10 -7z m827 -10 c-4 -3 -7 0 -7 7 0 7 3 10 7 7 3 -4 3 -10 0 -14z m283 -137 c0 3 7 1 15 -6 21 -18 19 -50 -7 -77 -26 -28 -45 -29 -77 -4 -23 17 -23 21 -11 50 15 38 38 53 62 40 10 -5 18 -7 18 -3z m-235 -6 c4 -6 10 -8 15 -5 12 7 24 -40 16 -60 -8 -22 -47 -34 -72 -23 -30 14 -47 54 -34 79 11 20 64 27 75 9z m1332 -17 c12 -29 33 -155 27 -162 -2 -2 -8 18 -15 44 -7 26 -20 54 -29 63 -12 12 -16 27 -13 50 6 39 14 41 30 5z m-589 -20 c-9 -10 -18 -25 -21 -33 -4 -11 -6 -9 -6 6 -1 21 16 44 33 44 5 0 2 -8 -6 -17z m52 -13 c0 -11 -4 -20 -10 -20 -6 0 -6 -9 -1 -23 11 -28 -8 -74 -28 -69 -7 1 -9 -2 -6 -8 4 -6 -5 -22 -19 -35 -27 -25 -35 -42 -13 -29 8 5 8 2 -2 -9 -7 -9 -19 -17 -27 -17 -10 0 -8 15 7 67 10 37 23 71 29 77 5 5 10 19 10 30 0 23 27 56 47 56 7 0 13 -9 13 -20z m-1183 -57 c-4 -3 -7 0 -7 7 0 7 3 10 7 7 3 -4 3 -10 0 -14z m713 -63 c-11 -80 -20 -102 -20 -52 0 18 -5 32 -11 32 -5 0 -7 -4 -4 -10 4 -6 -1 -7 -11 -3 -10 4 -13 8 -7 10 7 3 9 12 6 21 -4 15 -3 15 6 2 9 -12 11 -10 11 10 0 25 28 76 36 67 2 -2 0 -37 -6 -77z m-473 23 c-3 -10 -5 -2 -5 17 0 19 2 27 5 18 2 -10 2 -26 0 -35z m61 -42 c-39 -49 -89 -61 -72 -18 3 10 14 14 28 11 14 -2 30 4 41 16 27 30 30 24 3 -9z m1498 -79 c-4 -3 -14 2 -24 12 -16 18 -16 18 6 6 13 -6 21 -14 18 -18z"/>
 <path d="M2306 707 c3 -10 9 -15 12 -12 3 3 0 11 -7 18 -10 9 -11 8 -5 -6z"/>
 <path d="M1605 560 c3 -5 8 -10 11 -10 3 0 2 5 -1 10 -3 6 -8 10 -11 10 -3 0 -2 -4 1 -10z"/>
 <path d="M1224 358 c-4 -7 -3 -8 4 -4 7 4 12 9 12 12 0 8 -9 4 -16 -8z"/>
 </g>
<g id="layer109" fill="#93736a" stroke="none">
 <path d="M0 600 l0 -600 1500 0 1500 0 0 600 0 600 -1500 0 -1500 0 0 -600z m1418 323 c-10 -2 -26 -2 -35 0 -10 3 -2 5 17 5 19 0 27 -2 18 -5z m152 -3 c10 -6 -3 -7 -40 -3 -30 3 -57 7 -59 9 -10 9 85 3 99 -6z m706 -8 c-2 -4 -1 -14 5 -22 7 -12 9 -9 10 10 1 18 3 20 6 7 4 -14 11 -17 29 -13 13 4 24 2 24 -3 0 -5 -12 -12 -27 -15 -16 -4 -36 -9 -45 -12 -13 -4 -18 0 -18 13 0 11 -5 24 -12 31 -9 9 -7 12 11 12 12 0 20 -4 17 -8z m157 -52 c-28 -11 -29 -24 -3 -48 16 -15 26 -38 29 -74 1 -4 11 -12 22 -19 15 -8 19 -8 15 0 -4 6 -2 11 4 11 21 0 50 -21 50 -35 0 -8 7 -15 15 -15 8 0 15 -2 15 -4 0 -2 2 -11 6 -19 3 -9 -6 -19 -26 -27 -47 -19 -75 -2 -107 68 -23 51 -29 58 -50 54 -12 -2 -23 -10 -23 -18 0 -7 -8 -19 -19 -26 -10 -7 -26 -28 -35 -45 -19 -37 -49 -49 -88 -34 -33 12 -44 29 -28 44 10 9 14 9 17 0 3 -7 9 -13 14 -13 6 0 7 5 3 11 -3 6 -1 22 6 35 11 20 19 23 51 19 37 -5 38 -4 49 35 6 22 20 44 30 50 27 14 25 39 -2 50 -18 7 -13 9 27 9 40 0 45 -2 28 -9z m-1873 -90 c0 -3 -9 -6 -20 -7 -17 -1 -18 1 -8 17 9 14 14 16 20 7 4 -7 8 -14 8 -17z m630 -10 c0 -5 15 -8 33 -7 17 1 33 -2 34 -8 2 -5 -5 -10 -15 -10 -11 0 -16 -6 -14 -19 4 -23 -11 -14 -38 24 -12 17 -17 30 -11 30 6 0 11 -4 11 -10z m130 -36 c14 -35 13 -36 -10 -22 -11 7 -20 20 -20 28 0 9 -6 22 -12 29 -11 11 -9 11 10 2 13 -7 27 -23 32 -37z m424 20 c8 -20 8 -68 0 -88 -8 -21 -34 -8 -34 17 0 11 -10 32 -22 46 -13 14 -19 23 -14 19 4 -4 15 -1 23 7 19 20 39 19 47 -1z m-1280 -44 c1 -40 -2 -45 -23 -48 -41 -6 -71 7 -71 30 0 21 0 21 16 2 15 -18 15 -18 10 5 -8 36 11 63 41 59 23 -3 26 -7 27 -48z m217 29 c6 -12 9 -33 6 -47 -5 -24 -4 -25 8 -9 9 13 15 15 20 6 4 -6 1 -15 -6 -20 -20 -13 -77 -11 -85 3 -4 7 -3 8 4 4 8 -5 10 3 5 26 -7 41 -13 49 -13 18 0 -18 -3 -21 -12 -12 -9 9 -7 16 7 32 23 26 51 26 66 -1z m-191 -6 c0 -5 -5 -15 -10 -23 -8 -12 -10 -11 -10 8 0 12 5 22 10 22 6 0 10 -3 10 -7z m1925 -23 c1 -20 -18 -32 -27 -17 -13 21 -9 39 10 35 9 -2 17 -10 17 -18z m-758 -17 c-4 -3 -10 -3 -14 0 -3 4 0 7 7 7 7 0 10 -3 7 -7z m60 -50 c-4 -3 -10 -3 -14 0 -3 4 0 7 7 7 7 0 10 -3 7 -7z m-112 -60 c-2 -7 1 -12 8 -10 18 3 20 -42 3 -69 -19 -28 -51 -31 -84 -8 -26 18 -28 36 -5 75 14 23 23 28 50 26 22 -1 32 -6 28 -14z m-235 -4 c0 -5 4 -8 9 -5 5 3 14 -7 19 -24 10 -26 8 -32 -15 -50 -33 -26 -49 -25 -78 5 -28 27 -30 37 -15 66 12 21 80 28 80 8z m1328 -17 c6 -16 17 -55 23 -87 6 -33 17 -72 25 -87 8 -16 10 -28 5 -28 -15 0 -52 57 -54 82 -1 22 -21 51 -28 43 -7 -6 -10 59 -4 83 7 30 18 28 33 -6z m-578 -3 c0 -5 4 -8 9 -5 15 10 45 -20 35 -35 -14 -23 -13 -39 2 -39 8 0 14 -2 14 -5 0 -13 -72 -104 -87 -110 -14 -5 -15 -8 -4 -14 11 -7 7 -13 -13 -26 -15 -10 -29 -15 -32 -12 -3 3 2 34 11 69 10 34 17 68 18 75 0 7 4 10 8 8 3 -3 9 4 12 15 3 11 1 18 -4 14 -13 -8 -11 33 3 56 14 22 28 26 28 9z m-422 -106 c-4 -27 -11 -66 -15 -88 -5 -33 -7 -35 -11 -15 -2 14 -8 30 -14 35 -8 7 -9 6 -4 -2 5 -9 2 -11 -10 -6 -15 5 -15 7 0 15 9 5 16 21 16 37 0 22 30 71 44 71 1 0 -1 -21 -6 -47z m-721 20 c-4 -3 -7 0 -7 7 0 7 3 10 7 7 3 -4 3 -10 0 -14z m245 -11 c3 -9 1 -26 -3 -37 -6 -15 -8 -11 -8 18 -1 40 4 48 11 19z m60 -70 c-30 -32 -71 -57 -79 -48 -3 3 -2 17 1 33 6 20 9 24 16 13 5 -8 6 -18 3 -24 -3 -5 -1 -6 6 -2 6 4 9 12 6 17 -3 5 0 6 8 4 7 -3 22 3 32 15 10 11 21 20 26 20 4 0 -5 -13 -19 -28z m303 18 c3 -5 4 -10 1 -10 -3 0 -8 5 -11 10 -3 6 -4 10 -1 10 3 0 8 -4 11 -10z m62 -7 c-4 -3 -7 0 -7 7 0 7 3 10 7 7 3 -4 3 -10 0 -14z m1123 -78 c7 -8 8 -15 2 -15 -5 0 -15 7 -22 15 -7 8 -8 15 -2 15 5 0 15 -7 22 -15z"/>
 <path d="M2306 707 c3 -10 9 -15 12 -12 3 3 0 11 -7 18 -10 9 -11 8 -5 -6z"/>
 <path d="M1693 723 c4 -3 10 -3 14 0 3 4 0 7 -7 7 -7 0 -10 -3 -7 -7z"/>
 <path d="M2095 519 c-4 -6 -5 -12 -2 -15 2 -3 7 2 10 11 7 17 1 20 -8 4z"/>
 </g>
<g id="layer110" fill="#a5786e" stroke="none">
 <path d="M0 600 l0 -600 1500 0 1500 0 0 600 0 600 -1500 0 -1500 0 0 -600z m1423 323 c-13 -2 -33 -2 -45 0 -13 2 -3 4 22 4 25 0 35 -2 23 -4z m141 1 c9 -3 16 -10 16 -16 0 -5 -5 -6 -11 -2 -6 3 -34 10 -63 14 l-51 8 47 1 c25 0 53 -2 62 -5z m779 -10 l37 -7 -22 -18 c-11 -11 -28 -19 -37 -19 -9 0 -25 -3 -36 -6 -16 -4 -23 2 -32 25 -11 31 -11 31 20 31 18 0 49 -3 70 -6z m134 -31 c-4 -3 -10 -3 -14 0 -3 4 0 7 7 7 7 0 10 -3 7 -7z m-39 -25 c-34 -12 -35 -18 -3 -52 14 -15 25 -38 25 -51 0 -15 9 -29 21 -36 16 -8 20 -8 14 1 -5 8 0 11 16 8 13 -1 28 -13 34 -25 5 -13 13 -23 18 -23 5 0 15 -6 22 -14 17 -17 5 -31 -37 -41 -35 -9 -67 10 -84 50 -18 44 -32 52 -40 21 -8 -32 -31 -40 -44 -16 -15 29 -36 24 -50 -10 -22 -54 -68 -62 -127 -23 l-25 17 23 8 c15 6 25 5 27 -1 2 -6 8 -11 13 -11 6 0 7 5 3 11 -11 19 18 59 43 59 13 0 22 -4 19 -8 -2 -4 0 -14 6 -22 8 -13 9 -13 5 1 -3 8 3 21 14 27 10 7 19 21 19 32 0 10 11 31 24 45 33 35 24 59 -18 51 -22 -4 -27 -3 -16 4 8 5 40 9 70 9 49 -1 52 -2 28 -11z m-1878 -88 c0 -3 -9 -6 -20 -7 -17 -2 -19 1 -9 19 9 17 13 18 20 7 5 -8 9 -16 9 -19z m746 -12 c8 -7 16 -29 20 -48 4 -26 3 -31 -5 -20 -9 13 -11 13 -11 0 0 -9 6 -22 13 -30 6 -8 2 -6 -10 4 -13 11 -23 25 -23 33 0 8 -4 11 -10 8 -5 -3 -10 -1 -10 4 0 6 -7 11 -16 11 -13 0 -15 -7 -11 -29 l6 -28 -30 29 c-36 37 -52 65 -44 79 9 14 114 4 131 -13z m450 -24 c15 -58 -32 -143 -56 -104 -27 44 -34 49 -47 38 -17 -14 -31 -2 -16 13 6 6 9 17 7 24 -3 7 4 19 15 27 12 8 18 18 14 21 -3 4 12 7 35 7 37 0 42 -3 48 -26z m-1292 -34 c1 -40 -2 -45 -23 -48 -45 -7 -71 6 -70 36 0 26 1 26 9 5 12 -29 24 -30 17 -1 -9 33 10 60 40 56 23 -3 26 -7 27 -48z m216 31 c5 -11 10 -30 10 -43 0 -17 3 -19 9 -9 7 10 10 10 16 1 11 -18 -15 -31 -55 -28 -34 3 -35 4 -33 43 2 31 0 35 -5 15 -6 -18 -10 -21 -16 -12 -10 17 21 52 45 52 10 0 23 -9 29 -19z m-190 -8 c0 -5 -5 -15 -10 -23 -8 -12 -10 -11 -10 8 0 12 5 22 10 22 6 0 10 -3 10 -7z m903 -171 c21 -38 14 -53 -34 -78 -26 -13 -29 -12 -53 17 -44 52 -30 94 31 94 33 0 40 -4 56 -33z m232 9 c11 -22 11 -30 -1 -53 -21 -40 -43 -49 -82 -33 -43 19 -47 35 -22 78 19 31 26 36 56 35 27 -1 38 -7 49 -27z m-142 12 c-7 -2 -19 -2 -25 0 -7 3 -2 5 12 5 14 0 19 -2 13 -5z m662 -31 c19 -9 24 -18 21 -40 -3 -26 0 -28 22 -24 19 4 23 2 17 -9 -5 -8 -17 -20 -27 -27 -10 -7 -18 -18 -18 -23 0 -6 -15 -24 -32 -41 -24 -22 -27 -29 -13 -24 12 4 4 -8 -20 -28 -40 -35 -61 -41 -59 -15 4 33 41 159 46 154 3 -3 3 6 0 20 -2 15 3 41 14 61 11 20 20 29 22 21 2 -8 14 -19 27 -25z m554 11 c7 -16 17 -50 21 -78 5 -27 16 -68 26 -90 10 -22 17 -46 15 -54 -1 -7 2 -10 7 -7 6 3 12 -1 16 -9 3 -9 0 -15 -8 -15 -16 0 -48 34 -40 43 6 6 -41 74 -66 94 -13 11 -13 12 0 13 12 0 12 3 -2 11 -13 7 -16 18 -12 42 15 88 22 96 43 50z m-994 -80 c-4 -10 -10 -48 -12 -85 -3 -38 -9 -68 -13 -68 -11 0 -109 84 -104 89 2 2 14 -5 27 -17 l22 -21 19 42 c23 48 45 77 59 77 5 0 6 -8 2 -17z m-728 -10 c-4 -3 -7 0 -7 7 0 7 3 10 7 7 3 -4 3 -10 0 -14z m268 -29 c8 -4 15 -11 15 -16 0 -6 -6 -5 -15 2 -12 10 -16 9 -21 -4 -4 -9 -4 -19 -1 -22 11 -12 42 -10 55 3 7 7 19 13 25 13 17 -1 -69 -80 -87 -80 -11 0 -14 12 -11 53 2 28 4 63 5 77 l1 25 9 -23 c5 -12 16 -25 25 -28z"/>
 <path d="M2416 751 c-4 -7 -14 -10 -22 -7 -8 3 -14 1 -14 -3 0 -13 25 -20 40 -11 7 4 10 14 8 21 -3 10 -6 10 -12 0z"/>
 <path d="M1668 693 c7 -3 16 -2 19 1 4 3 -2 6 -13 5 -11 0 -14 -3 -6 -6z"/>
 <path d="M1649 393 c-1 -5 -1 -11 0 -15 0 -5 -4 -8 -10 -8 -5 0 -7 -4 -4 -10 11 -18 21 -11 21 15 0 23 -5 34 -7 18z"/>
 </g>
<g id="layer111" fill="#96867a" stroke="none">
 <path d="M0 600 l0 -600 1500 0 1500 0 0 600 0 600 -1500 0 -1500 0 0 -600z m1423 323 c-13 -2 -33 -2 -45 0 -13 2 -3 4 22 4 25 0 35 -2 23 -4z m141 1 c9 -3 16 -10 16 -16 0 -5 -5 -6 -11 -2 -6 3 -34 10 -63 14 l-51 8 47 1 c25 0 53 -2 62 -5z m779 -10 l37 -7 -22 -18 c-11 -11 -28 -19 -37 -19 -9 0 -25 -3 -36 -6 -16 -4 -23 2 -32 25 -11 31 -11 31 20 31 18 0 49 -3 70 -6z m134 -31 c-4 -3 -10 -3 -14 0 -3 4 0 7 7 7 7 0 10 -3 7 -7z m-39 -25 c-34 -12 -35 -18 -3 -52 14 -15 25 -38 25 -51 0 -15 9 -29 21 -36 16 -8 20 -8 14 1 -5 8 0 11 16 8 13 -1 28 -13 34 -25 5 -13 13 -23 18 -23 5 0 15 -6 22 -14 17 -17 5 -31 -37 -41 -35 -9 -67 10 -84 50 -18 44 -32 52 -40 21 -8 -32 -31 -40 -44 -16 -15 29 -36 24 -50 -10 -22 -54 -68 -62 -127 -23 l-25 17 23 8 c15 6 25 5 27 -1 2 -6 8 -11 13 -11 6 0 7 5 3 11 -11 19 18 59 43 59 13 0 22 -4 19 -8 -2 -4 0 -14 6 -22 8 -13 9 -13 5 1 -3 8 3 21 14 27 10 7 19 21 19 32 0 10 11 31 24 45 33 35 24 59 -18 51 -22 -4 -27 -3 -16 4 8 5 40 9 70 9 49 -1 52 -2 28 -11z m-1891 -99 c-29 -8 -31 -5 -17 21 11 21 12 21 25 3 12 -16 11 -19 -8 -24z m756 3 c9 -10 20 -33 23 -52 4 -18 19 -51 33 -73 14 -21 26 -42 27 -46 3 -28 18 -60 30 -65 8 -3 14 -11 14 -17 0 -7 -3 -10 -6 -7 -3 4 -22 -5 -42 -18 -46 -32 -61 -28 -88 20 -21 37 -21 41 -6 64 12 19 22 23 48 20 23 -3 30 0 27 9 -3 7 -9 11 -13 8 -4 -3 -17 11 -29 31 -12 19 -25 33 -30 30 -5 -4 -12 0 -14 6 -4 8 -8 4 -12 -9 -10 -31 -20 -29 -41 7 -10 16 -21 25 -24 19 -4 -6 -14 1 -24 17 -12 17 -13 24 -5 18 12 -6 12 -5 1 8 -7 8 -10 23 -6 32 9 24 115 23 137 -2z m445 -4 c26 -22 6 -143 -25 -143 -6 0 -15 -3 -19 -7 -13 -14 -23 -8 -26 15 -3 19 -9 22 -49 22 -47 -1 -47 -1 -30 22 9 12 23 23 31 23 10 1 11 3 3 7 -22 8 -15 53 10 62 31 12 89 11 105 -1z m-1284 -58 c1 -40 -2 -45 -23 -48 -45 -7 -71 6 -70 36 0 26 1 26 9 5 12 -29 24 -30 17 -1 -9 33 10 60 40 56 23 -3 26 -7 27 -48z m216 31 c5 -11 10 -30 10 -43 0 -17 3 -19 9 -9 7 10 10 10 16 1 11 -18 -15 -31 -55 -28 -34 3 -35 4 -33 43 2 31 0 35 -5 15 -6 -18 -10 -21 -16 -12 -10 17 21 52 45 52 10 0 23 -9 29 -19z m-190 -8 c0 -5 -5 -15 -10 -23 -8 -12 -10 -11 -10 8 0 12 5 22 10 22 6 0 10 -3 10 -7z m1136 -158 c19 -28 13 -53 -20 -84 -27 -25 -48 -23 -89 10 l-26 19 26 40 c22 33 32 40 60 40 24 0 37 -7 49 -25z m-143 8 c-7 -2 -19 -2 -25 0 -7 3 -2 5 12 5 14 0 19 -2 13 -5z m662 -31 c19 -9 24 -18 21 -40 -3 -26 0 -28 22 -24 19 4 23 2 17 -9 -5 -8 -17 -20 -27 -27 -10 -7 -18 -18 -18 -23 0 -6 -15 -24 -32 -41 -24 -22 -27 -29 -13 -24 12 4 4 -8 -20 -28 -40 -35 -61 -41 -59 -15 4 33 41 159 46 154 3 -3 3 6 0 20 -2 15 3 41 14 61 11 20 20 29 22 21 2 -8 14 -19 27 -25z m554 11 c7 -16 17 -50 21 -78 5 -27 16 -68 26 -90 10 -22 17 -46 15 -54 -1 -7 2 -10 7 -7 6 3 12 -1 16 -9 8 -23 -18 -18 -40 7 -10 12 -13 18 -6 14 16 -10 -48 87 -65 97 -7 5 -11 12 -8 17 3 5 1 11 -5 15 -5 3 -7 20 -4 38 15 88 22 96 43 50z m-994 -80 c-4 -10 -10 -48 -12 -85 -3 -38 -9 -68 -13 -68 -12 0 -120 93 -120 104 0 9 38 -19 52 -39 4 -6 8 -2 8 8 0 9 4 17 9 17 5 0 13 10 16 23 7 22 42 56 59 57 4 0 5 -8 1 -17z m-728 -10 c-4 -3 -7 0 -7 7 0 7 3 10 7 7 3 -4 3 -10 0 -14z m302 -38 l33 -17 -28 -30 c-16 -16 -41 -36 -56 -44 l-27 -14 0 63 c1 34 3 71 6 81 5 19 6 19 22 -1 9 -12 31 -28 50 -38z"/>
 <path d="M2416 751 c-4 -7 -14 -10 -22 -7 -8 3 -14 1 -14 -3 0 -13 25 -20 40 -11 7 4 10 14 8 21 -3 10 -6 10 -12 0z"/>
 <path d="M1250 700 c0 -7 3 -10 7 -7 3 4 3 10 0 14 -4 3 -7 0 -7 -7z"/>
 </g>
<g id="layer112" fill="#af8c78" stroke="none">
 <path d="M0 600 l0 -600 1500 0 1500 0 0 600 0 600 -1500 0 -1500 0 0 -600z m1576 314 c19 -15 19 -16 -1 -8 -11 4 -65 10 -120 14 l-100 7 101 1 c78 2 104 -1 120 -14z m819 -4 c29 -7 29 -8 4 -9 -15 0 -32 -7 -38 -14 -8 -11 -3 -14 27 -14 63 -1 73 -3 67 -13 -3 -5 -15 -10 -25 -10 -24 0 -16 -27 15 -52 11 -9 20 -28 20 -45 0 -26 2 -28 37 -25 33 3 38 0 43 -21 6 -23 35 -41 60 -38 6 1 -3 -10 -18 -24 -15 -14 -39 -25 -53 -25 -27 0 -74 40 -74 64 0 27 -20 28 -32 2 -13 -31 -43 -34 -58 -6 -15 27 -28 25 -36 -5 -7 -29 -39 -55 -69 -55 -11 0 -38 12 -60 27 -34 23 -37 28 -20 31 11 2 26 9 33 14 9 8 12 5 12 -11 0 -11 5 -21 11 -21 5 0 8 4 4 10 -3 5 -3 21 1 35 6 24 11 26 47 23 37 -2 41 0 48 27 5 16 20 40 34 53 21 19 24 26 14 39 -8 9 -21 12 -37 8 -15 -4 -21 -2 -17 5 4 7 -6 8 -33 4 -37 -6 -40 -4 -50 25 l-11 31 62 -1 c34 -1 76 -5 92 -9z m98 -25 c36 -15 57 -35 38 -35 -6 0 -11 5 -11 10 0 6 -9 10 -19 10 -26 0 -51 10 -51 21 0 12 1 12 43 -6z m-1946 -72 c-4 -3 -7 0 -7 7 0 7 3 10 7 7 3 -4 3 -10 0 -14z m23 -53 c0 -3 -11 -5 -25 -5 -29 0 -29 0 -14 26 10 20 11 20 24 2 8 -10 15 -20 15 -23z m732 7 c9 -7 20 -31 24 -52 4 -22 18 -54 31 -72 14 -18 26 -38 27 -45 9 -43 20 -67 32 -72 8 -3 14 -11 14 -17 0 -7 -3 -10 -6 -7 -3 4 -22 -5 -42 -18 -46 -32 -61 -28 -88 20 -21 37 -21 41 -6 64 12 19 22 23 48 20 23 -3 30 0 27 9 -3 7 -9 11 -13 8 -4 -3 -17 11 -29 31 -12 19 -25 33 -30 30 -5 -4 -12 0 -14 6 -4 8 -8 4 -12 -9 -10 -31 -20 -29 -41 7 -10 16 -21 25 -24 19 -4 -6 -14 1 -24 17 -12 17 -13 24 -5 18 12 -6 12 -5 0 9 -7 9 -11 24 -7 32 7 19 113 20 138 2z m446 -9 c26 -22 6 -143 -25 -143 -6 0 -15 -3 -19 -7 -13 -14 -23 -8 -26 15 -3 19 -9 22 -49 22 -47 -1 -47 -1 -30 22 9 12 23 23 31 23 10 1 11 3 3 7 -22 8 -15 53 10 62 31 12 89 11 105 -1z m519 -5 c-4 -3 -10 -3 -14 0 -3 4 0 7 7 7 7 0 10 -3 7 -7z m-1793 -16 c17 -12 17 -16 2 -51 -15 -36 -17 -37 -58 -34 -36 3 -44 7 -46 26 -5 35 24 72 56 72 16 0 36 -6 46 -13z m204 1 c7 -7 12 -26 13 -42 0 -25 2 -27 8 -12 7 19 8 19 14 1 8 -20 9 -18 -20 -34 -14 -7 -30 -8 -46 -2 -20 8 -23 15 -20 43 2 24 1 28 -5 14 -6 -14 -11 -16 -16 -7 -10 15 21 51 44 51 9 0 21 -5 28 -12z m948 -173 c19 -28 13 -53 -20 -84 -27 -25 -48 -23 -89 10 l-26 19 26 40 c22 33 32 40 60 40 24 0 37 -7 49 -25z m524 -22 c19 -16 26 -30 23 -43 -4 -15 0 -20 16 -20 24 0 29 -25 6 -34 -8 -3 -15 -12 -15 -21 0 -8 -18 -27 -40 -41 -43 -28 -54 -42 -19 -24 42 23 28 2 -25 -38 -48 -37 -55 -40 -61 -23 -3 10 3 47 14 82 11 35 22 80 26 99 9 45 39 111 44 97 2 -6 16 -21 31 -34z m190 32 c0 -8 -4 -15 -10 -15 -5 0 -7 7 -4 15 4 8 8 15 10 15 2 0 4 -7 4 -15z m-857 -2 c-7 -2 -19 -2 -25 0 -7 3 -2 5 12 5 14 0 19 -2 13 -5z m1216 -20 c7 -15 16 -47 21 -72 5 -25 19 -68 31 -96 13 -27 26 -58 31 -67 12 -27 -12 -22 -52 12 -19 17 -27 27 -16 24 16 -6 17 -4 7 14 -6 11 -25 34 -42 51 -17 17 -27 31 -24 31 4 0 3 6 -3 13 -13 16 7 117 23 117 7 0 17 -12 24 -27z m-998 -105 c-6 -17 -11 -55 -11 -85 l0 -54 -27 20 c-55 41 -107 90 -102 95 3 3 17 -6 32 -20 20 -18 27 -21 27 -9 0 8 4 15 9 15 5 0 13 10 16 23 8 25 58 70 63 56 2 -5 -1 -24 -7 -41z m-724 15 c-4 -3 -7 0 -7 7 0 7 3 10 7 7 3 -4 3 -10 0 -14z m302 -38 l33 -17 -28 -30 c-16 -16 -41 -36 -56 -44 l-27 -14 0 63 c1 34 3 71 6 81 5 19 6 19 22 -1 9 -12 31 -28 50 -38z"/>
 <path d="M2306 707 c3 -10 9 -15 12 -12 3 3 0 11 -7 18 -10 9 -11 8 -5 -6z"/>
 <path d="M1250 700 c0 -7 3 -10 7 -7 3 4 3 10 0 14 -4 3 -7 0 -7 -7z"/>
 <path d="M461 704 c0 -11 3 -14 6 -6 3 7 2 16 -1 19 -3 4 -6 -2 -5 -13z"/>
 <path d="M380 696 c0 -8 5 -18 10 -21 6 -3 10 1 10 9 0 8 -4 18 -10 21 -5 3 -10 -1 -10 -9z"/>
 </g>
<g id="layer113" fill="#98918d" stroke="none">
 <path d="M0 600 l0 -600 1500 0 1500 0 0 600 0 600 -1500 0 -1500 0 0 -600z m1576 314 c19 -15 19 -16 -1 -8 -11 4 -67 10 -125 14 l-105 7 106 1 c83 2 109 -1 125 -14z m-261 -1 c-10 -3 -29 -12 -41 -20 -21 -13 -22 -13 -17 6 4 17 13 21 42 20 21 -1 28 -3 16 -6z m1080 -3 c29 -7 29 -8 4 -9 -15 0 -32 -7 -38 -14 -8 -11 -3 -14 27 -14 63 -1 73 -3 67 -13 -3 -5 -15 -10 -25 -10 -24 0 -16 -27 15 -52 11 -9 20 -28 20 -45 0 -26 2 -28 37 -25 33 3 38 0 43 -21 6 -23 35 -41 60 -38 6 1 -3 -10 -18 -24 -15 -14 -39 -25 -53 -25 -27 0 -74 40 -74 64 0 27 -20 28 -32 2 -13 -31 -43 -34 -58 -6 -15 27 -28 25 -36 -5 -7 -29 -39 -55 -69 -55 -11 0 -38 12 -60 27 -34 23 -37 28 -20 31 11 2 26 9 33 14 9 8 12 5 12 -11 0 -11 5 -21 11 -21 5 0 8 4 4 10 -3 5 -3 21 1 35 6 24 11 26 47 23 37 -2 41 0 48 27 5 16 20 40 34 53 21 19 24 26 14 39 -8 9 -21 12 -37 8 -15 -4 -21 -2 -17 5 4 7 -6 8 -33 4 -37 -6 -40 -4 -50 25 l-11 31 62 -1 c34 -1 76 -5 92 -9z m98 -25 c36 -15 57 -35 38 -35 -6 0 -11 5 -11 10 0 6 -9 10 -19 10 -26 0 -51 10 -51 21 0 12 1 12 43 -6z m-1946 -72 c-4 -3 -7 0 -7 7 0 7 3 10 7 7 3 -4 3 -10 0 -14z m23 -53 c0 -3 -14 -5 -30 -6 -35 -1 -35 0 -13 25 15 19 17 19 29 3 8 -9 13 -19 14 -22z m755 12 c-8 -23 17 -105 43 -140 14 -18 26 -43 27 -55 1 -12 3 -28 4 -34 0 -7 5 -12 11 -10 5 1 20 -11 33 -27 l23 -29 13 32 c8 17 19 31 26 31 7 0 15 10 19 23 3 13 16 36 30 51 28 34 66 107 66 129 0 9 5 19 11 23 18 11 103 12 117 1 18 -14 15 -104 -5 -137 -25 -44 -56 -53 -103 -33 -22 10 -40 21 -40 25 0 15 -25 8 -37 -10 -10 -17 -8 -18 19 -17 23 1 32 -4 41 -22 5 -12 14 -23 19 -23 5 0 4 -9 -2 -19 -5 -11 -10 -32 -10 -48 0 -22 -2 -25 -10 -13 -8 13 -10 12 -10 -3 0 -10 -4 -16 -9 -12 -9 5 -5 -45 4 -54 7 -6 44 42 45 57 0 6 7 12 15 12 8 0 15 4 15 9 0 5 7 12 16 15 14 5 15 2 9 -26 -5 -18 -11 -62 -14 -97 l-6 -65 -55 47 c-30 26 -61 52 -68 58 -14 11 -6 33 9 24 5 -3 6 0 4 7 -3 7 -22 24 -42 37 l-37 24 -17 -22 c-22 -26 -35 -27 -42 -1 -6 24 -29 26 -47 5 -7 -8 -18 -15 -25 -15 -6 0 -23 -10 -36 -22 -17 -14 -19 -19 -6 -15 20 7 47 -1 47 -14 0 -5 -13 -9 -28 -9 -19 0 -38 -11 -58 -31 -16 -17 -41 -37 -56 -45 l-28 -15 0 80 c0 59 4 80 14 84 8 3 17 -1 20 -10 4 -8 12 -13 20 -10 7 3 19 1 25 -4 8 -6 8 -5 1 3 -15 18 -12 31 5 24 14 -5 13 -2 0 24 -14 27 -14 32 1 55 9 14 25 25 36 25 19 0 19 1 -2 31 -12 16 -25 27 -29 23 -3 -4 0 -9 7 -11 29 -11 10 -25 -27 -20 -35 4 -38 3 -33 -17 3 -11 10 -27 16 -35 9 -12 7 -13 -9 -7 -11 4 -32 10 -47 13 -19 4 -28 12 -28 25 0 10 -4 16 -10 13 -13 -8 -1 156 13 173 14 18 159 12 152 -6z m942 -19 c-4 -3 -10 -3 -14 0 -3 4 0 7 7 7 7 0 10 -3 7 -7z m-1793 -16 c17 -12 17 -16 2 -51 -15 -36 -17 -37 -58 -34 -36 3 -44 7 -46 26 -5 35 24 72 56 72 16 0 36 -6 46 -13z m204 1 c7 -7 12 -26 13 -42 0 -25 2 -27 8 -12 7 19 8 19 14 1 8 -20 9 -18 -20 -34 -14 -7 -30 -8 -46 -2 -20 8 -23 15 -20 43 2 24 1 28 -5 14 -6 -14 -11 -16 -16 -7 -10 15 21 51 44 51 9 0 21 -5 28 -12z m1455 -178 c17 0 42 -41 38 -62 -1 -12 4 -18 18 -18 12 0 21 -7 21 -15 0 -8 -5 -15 -11 -15 -5 0 -15 -13 -20 -29 -6 -16 -20 -32 -32 -35 -16 -4 -19 -8 -9 -14 9 -6 -2 -20 -42 -50 -48 -37 -55 -40 -61 -23 -3 10 3 47 14 82 11 35 22 80 26 99 9 46 39 112 43 94 2 -8 9 -14 15 -14z m203 3 c-10 -10 -19 5 -10 18 6 11 8 11 12 0 2 -7 1 -15 -2 -18z m-854 5 c-9 -9 -15 -9 -24 0 -9 9 -7 12 12 12 19 0 21 -3 12 -12z m1222 -30 c8 -24 17 -59 21 -78 3 -19 19 -62 35 -95 15 -33 24 -61 19 -63 -4 -2 -25 9 -45 24 -20 16 -31 30 -25 32 13 4 -11 44 -51 85 -26 26 -26 29 -12 62 8 19 14 44 14 55 0 36 28 21 44 -22z m-1727 -75 c-4 -3 -7 0 -7 7 0 7 3 10 7 7 3 -4 3 -10 0 -14z"/>
 <path d="M2306 707 c3 -10 9 -15 12 -12 3 3 0 11 -7 18 -10 9 -11 8 -5 -6z"/>
 <path d="M461 704 c0 -11 3 -14 6 -6 3 7 2 16 -1 19 -3 4 -6 -2 -5 -13z"/>
 <path d="M380 696 c0 -8 5 -18 10 -21 6 -3 10 1 10 9 0 8 -4 18 -10 21 -5 3 -10 -1 -10 -9z"/>
 </g>
<g id="layer114" fill="#a7a57c" stroke="none">
 <path d="M0 600 l0 -600 1500 0 1500 0 0 600 0 600 -1500 0 -1500 0 0 -600z m1576 314 c19 -15 19 -16 -1 -8 -11 4 -64 9 -119 10 -132 4 -136 14 -5 14 81 0 110 -4 125 -16z m-261 -1 c-10 -3 -29 -12 -41 -20 -21 -13 -22 -13 -17 6 4 17 13 21 42 20 21 -1 28 -3 16 -6z m1100 -3 c3 -5 -3 -10 -14 -10 -11 0 -23 -4 -26 -10 -4 -6 6 -10 24 -10 16 0 38 -3 48 -7 16 -6 16 -5 4 10 -22 28 -9 28 49 0 31 -14 49 -28 42 -30 -8 -3 -19 0 -25 6 -14 14 -50 15 -42 1 4 -6 -7 -10 -24 -10 -38 0 -40 -18 -6 -50 14 -13 23 -30 21 -37 -11 -27 4 -39 44 -35 36 4 42 1 57 -27 19 -33 33 -40 33 -16 0 8 5 15 11 15 14 0 0 -42 -20 -57 -45 -35 -88 -29 -119 17 -26 39 -42 49 -42 27 0 -8 -7 -21 -16 -28 -14 -11 -19 -10 -34 9 -24 29 -31 27 -55 -11 -23 -36 -53 -44 -95 -27 -32 13 -70 50 -52 50 7 0 13 -1 15 -2 2 -2 16 10 31 25 24 24 35 28 68 25 36 -3 40 -2 45 24 3 16 17 37 30 48 44 34 21 65 -32 44 -18 -7 -19 -6 -6 10 13 16 12 17 -13 10 -52 -13 -59 -10 -67 24 l-6 32 83 0 c45 0 86 -4 89 -10z m-1854 -134 c15 -16 10 -21 -21 -22 -34 -1 -36 1 -15 22 8 9 16 25 16 37 2 19 2 19 6 -3 3 -14 9 -29 14 -34z m764 -4 c-8 -23 17 -105 43 -140 14 -18 26 -43 27 -55 1 -12 3 -28 4 -34 0 -7 5 -12 11 -10 5 1 20 -11 33 -27 l23 -29 13 32 c8 17 19 31 26 31 7 0 15 10 19 23 3 13 16 36 30 51 28 34 66 107 66 129 0 9 5 19 11 23 18 11 103 12 117 1 18 -14 15 -104 -5 -137 -25 -44 -56 -53 -103 -33 -22 10 -40 21 -40 25 0 15 -25 8 -37 -10 -10 -17 -8 -18 19 -17 23 1 32 -4 41 -22 5 -12 14 -23 19 -23 5 0 4 -9 -2 -19 -5 -11 -10 -32 -10 -48 0 -22 -2 -25 -10 -13 -8 13 -10 12 -10 -3 0 -10 -4 -16 -9 -12 -9 5 -5 -45 4 -54 7 -6 44 42 45 57 0 6 5 12 11 12 6 0 18 7 27 16 21 22 27 4 13 -38 -6 -17 -11 -56 -11 -86 l0 -54 -23 15 c-13 9 -38 28 -54 44 -17 15 -38 34 -47 41 -17 13 -12 37 5 27 5 -3 6 0 4 7 -3 7 -22 24 -42 37 l-37 24 -17 -22 c-22 -26 -35 -27 -42 -1 -6 24 -29 26 -47 5 -7 -8 -18 -15 -25 -15 -6 0 -23 -10 -36 -22 -17 -14 -19 -19 -6 -15 20 7 47 -1 47 -14 0 -5 -13 -9 -28 -9 -19 0 -38 -11 -58 -31 -16 -17 -41 -37 -56 -45 l-28 -15 0 80 c0 59 4 80 14 84 8 3 17 -1 20 -10 4 -8 12 -13 20 -10 7 3 19 1 25 -4 8 -6 8 -5 1 3 -15 18 -12 31 5 24 14 -5 13 -2 0 24 -14 27 -14 32 1 55 9 14 25 25 36 25 19 0 19 1 -2 31 -12 16 -25 27 -29 23 -3 -4 0 -9 7 -11 29 -11 10 -25 -27 -20 -35 4 -38 3 -33 -17 3 -11 10 -27 16 -35 9 -12 7 -13 -9 -7 -11 4 -32 10 -47 13 -19 4 -28 12 -28 25 0 10 -4 16 -10 13 -13 -8 -1 156 13 173 14 18 159 12 152 -6z m950 -12 c-3 -5 -14 -10 -23 -9 -14 0 -13 2 3 9 27 11 27 11 20 0z m-1785 -36 c0 -21 -31 -72 -46 -76 -38 -9 -69 6 -72 36 -6 51 43 84 91 60 15 -8 27 -17 27 -20z m184 20 c10 -4 16 -19 17 -43 1 -20 3 -28 6 -18 6 22 23 12 23 -13 0 -27 -53 -37 -85 -16 -14 9 -25 20 -25 25 0 5 -3 16 -6 24 -6 16 20 47 41 47 7 0 20 -3 29 -6z m1502 -235 c1 -5 2 -13 3 -19 0 -5 10 -10 21 -10 25 0 26 -16 1 -29 -10 -6 -22 -22 -25 -36 -4 -14 -13 -25 -21 -25 -7 0 -17 -5 -21 -12 -5 -8 -2 -9 11 -4 28 10 2 -17 -56 -59 -62 -44 -69 -33 -41 62 11 38 23 84 27 103 3 19 13 52 22 72 l16 37 31 -35 c17 -20 32 -40 32 -45z m160 54 c-10 -10 -19 5 -10 18 6 11 8 11 12 0 2 -7 1 -15 -2 -18z m390 -97 c9 -33 27 -85 42 -114 14 -28 22 -55 19 -58 -5 -5 -107 64 -107 72 0 1 10 0 21 -3 21 -6 21 -6 3 23 -10 16 -31 41 -46 57 -26 26 -26 29 -12 62 8 19 14 43 14 54 0 31 24 30 38 -2 6 -16 19 -57 28 -91z m-1244 102 c-9 -9 -15 -9 -24 0 -9 9 -7 12 12 12 19 0 21 -3 12 -12z m1015 -5 c-4 -3 -7 0 -7 7 0 7 3 10 7 7 3 -4 3 -10 0 -14z m-1519 -98 c-3 -3 -9 2 -12 12 -6 14 -5 15 5 6 7 -7 10 -15 7 -18z m899 -22 c-4 -3 -7 0 -7 7 0 7 3 10 7 7 3 -4 3 -10 0 -14z"/>
 <path d="M461 704 c0 -11 3 -14 6 -6 3 7 2 16 -1 19 -3 4 -6 -2 -5 -13z"/>
 <path d="M380 696 c0 -8 5 -18 10 -21 6 -3 10 1 10 9 0 8 -4 18 -10 21 -5 3 -10 -1 -10 -9z"/>
 <path d="M622 695 c0 -16 2 -22 5 -12 2 9 2 23 0 30 -3 6 -5 -1 -5 -18z"/>
 </g>
<g id="layer115" fill="#b3988b" stroke="none">
 <path d="M0 600 l0 -600 1500 0 1500 0 0 600 0 600 -1500 0 -1500 0 0 -600z m1576 314 c19 -15 19 -16 -1 -8 -11 4 -64 9 -119 10 -132 4 -136 14 -5 14 81 0 110 -4 125 -16z m-261 -1 c-10 -3 -29 -12 -41 -20 -21 -13 -22 -13 -17 6 4 17 13 21 42 20 21 -1 28 -3 16 -6z m1100 -3 c3 -5 -3 -10 -14 -10 -11 0 -23 -4 -26 -10 -4 -6 6 -10 24 -10 16 0 38 -3 48 -7 16 -6 16 -5 4 10 -22 28 -9 28 49 0 31 -14 49 -28 42 -30 -8 -3 -19 0 -25 6 -14 14 -50 15 -42 1 4 -6 -7 -10 -24 -10 -38 0 -40 -18 -6 -50 14 -13 23 -30 21 -37 -11 -27 4 -39 44 -35 36 4 42 1 57 -27 19 -33 33 -40 33 -16 0 8 5 15 11 15 14 0 0 -42 -20 -57 -45 -35 -88 -29 -119 17 -26 39 -42 49 -42 27 0 -8 -7 -21 -16 -28 -14 -11 -19 -10 -34 9 -24 29 -31 27 -55 -11 -23 -36 -53 -44 -95 -27 -32 13 -70 50 -52 50 7 0 13 -1 15 -2 2 -2 16 10 31 25 24 24 35 28 68 25 36 -3 40 -2 45 24 3 16 17 37 30 48 44 34 21 65 -32 44 -18 -7 -19 -6 -6 10 13 16 12 17 -13 10 -52 -13 -59 -10 -67 24 l-6 32 83 0 c45 0 86 -4 89 -10z m-1854 -134 c15 -16 10 -21 -21 -22 -34 -1 -36 1 -15 22 8 9 16 25 16 37 2 19 2 19 6 -3 3 -14 9 -29 14 -34z m764 -4 c-8 -23 17 -105 43 -140 14 -18 26 -43 27 -55 1 -12 3 -28 4 -34 0 -7 5 -12 11 -10 5 1 20 -11 33 -27 l23 -29 13 32 c8 17 19 31 26 31 7 0 15 10 19 23 3 13 16 36 30 51 28 34 66 107 66 129 0 9 5 19 11 23 18 11 103 12 117 1 18 -14 15 -104 -5 -137 -25 -44 -56 -53 -103 -33 -22 10 -40 21 -40 25 0 15 -25 8 -37 -10 -10 -17 -8 -18 19 -17 23 1 32 -4 41 -22 5 -12 14 -23 19 -23 5 0 4 -9 -2 -19 -5 -11 -10 -32 -10 -48 0 -22 -2 -25 -10 -13 -8 13 -10 12 -10 -3 0 -10 -4 -16 -9 -12 -9 5 -5 -45 4 -54 7 -6 44 42 45 57 0 6 5 12 11 12 6 0 18 7 27 16 21 22 27 4 13 -38 -6 -17 -11 -56 -11 -86 l0 -54 -23 15 c-13 9 -38 28 -54 44 -17 15 -38 34 -47 41 -17 13 -12 37 5 27 5 -3 6 0 4 7 -3 7 -22 24 -42 37 l-37 24 -17 -22 c-22 -26 -35 -27 -42 -1 -6 24 -29 26 -47 5 -7 -8 -18 -15 -25 -15 -6 0 -23 -10 -36 -22 -17 -14 -19 -19 -6 -15 20 7 47 -1 47 -14 0 -5 -13 -9 -28 -9 -19 0 -38 -11 -58 -31 -16 -17 -41 -37 -56 -45 l-28 -15 0 80 c0 59 4 80 14 84 8 3 17 -1 20 -10 4 -8 12 -13 20 -10 7 3 19 1 25 -4 8 -6 8 -5 1 3 -15 18 -12 31 5 24 14 -5 13 -2 0 24 -14 27 -14 32 1 55 9 14 25 25 36 25 19 0 19 1 -2 31 -12 16 -25 27 -29 23 -3 -4 0 -9 7 -11 29 -11 10 -25 -27 -20 -35 4 -38 3 -33 -17 3 -11 10 -27 16 -35 9 -12 7 -13 -9 -7 -11 4 -32 10 -47 13 -19 4 -28 12 -28 25 0 10 -4 16 -10 13 -13 -8 -1 156 13 173 14 18 159 12 152 -6z m950 -12 c-3 -5 -14 -10 -23 -9 -14 0 -13 2 3 9 27 11 27 11 20 0z m-1785 -36 c0 -21 -31 -72 -46 -76 -38 -9 -69 6 -72 36 -6 51 43 84 91 60 15 -8 27 -17 27 -20z m184 20 c10 -4 16 -19 17 -38 0 -17 3 -25 6 -18 7 17 23 5 23 -18 0 -27 -53 -37 -85 -16 -14 9 -25 20 -25 25 0 5 -3 16 -6 24 -6 16 20 47 41 47 7 0 20 -3 29 -6z m1502 -235 c1 -5 2 -13 3 -19 0 -5 10 -10 21 -10 25 0 26 -16 1 -29 -10 -6 -22 -22 -25 -36 -4 -14 -13 -25 -21 -25 -7 0 -17 -5 -21 -12 -5 -8 -2 -9 11 -4 28 10 2 -17 -56 -59 -62 -44 -69 -33 -41 62 11 38 23 84 27 103 3 19 13 52 22 72 l16 37 31 -35 c17 -20 32 -40 32 -45z m160 54 c-10 -10 -19 5 -10 18 6 11 8 11 12 0 2 -7 1 -15 -2 -18z m390 -97 c9 -33 27 -85 42 -114 14 -28 22 -55 19 -58 -5 -5 -107 64 -107 72 0 1 10 0 21 -3 21 -6 21 -6 3 23 -10 16 -31 41 -46 57 -26 26 -26 29 -12 62 8 19 14 43 14 54 0 31 24 30 38 -2 6 -16 19 -57 28 -91z m-1244 102 c-9 -9 -15 -9 -24 0 -9 9 -7 12 12 12 19 0 21 -3 12 -12z m1015 -5 c-4 -3 -7 0 -7 7 0 7 3 10 7 7 3 -4 3 -10 0 -14z m-1519 -98 c-3 -3 -9 2 -12 12 -6 14 -5 15 5 6 7 -7 10 -15 7 -18z m899 -22 c-4 -3 -7 0 -7 7 0 7 3 10 7 7 3 -4 3 -10 0 -14z"/>
 </g>
<g id="layer116" fill="#f2c241" stroke="none">
 <path d="M0 600 l0 -600 1500 0 1500 0 0 600 0 600 -1500 0 -1500 0 0 -600z m1576 315 c18 -14 16 -15 -21 -8 -22 5 -84 7 -138 6 -79 -1 -105 -6 -133 -22 -42 -25 -45 -25 -39 -6 3 8 7 22 10 30 7 22 292 22 321 0z m912 -19 c46 -23 85 -56 66 -56 -5 1 -20 7 -34 15 -14 8 -32 14 -40 14 -10 0 -11 -2 -2 -6 25 -10 11 -19 -23 -15 -43 5 -48 -17 -10 -46 15 -12 25 -30 25 -46 0 -24 4 -26 40 -26 35 0 43 -4 58 -30 18 -32 32 -39 32 -15 0 15 12 20 23 9 11 -11 -13 -43 -44 -59 -45 -24 -80 -16 -107 25 -26 39 -42 49 -42 27 0 -8 -9 -24 -19 -36 l-19 -22 -18 30 c-10 17 -21 31 -24 31 -3 -1 -14 -15 -25 -33 -13 -21 -30 -33 -48 -35 -27 -3 -107 34 -107 50 0 5 -6 6 -12 2 -10 -5 -10 -4 -1 6 7 7 21 14 31 15 10 0 29 9 42 18 14 9 42 17 62 17 34 0 39 3 44 29 4 16 17 34 30 42 22 12 32 38 18 52 -3 3 -18 1 -32 -4 -17 -7 -27 -6 -32 1 -4 6 -18 8 -32 5 -28 -7 -32 -4 -42 38 l-6 27 100 0 c87 0 107 -3 148 -24z m-1264 -61 c-9 -14 -21 -25 -27 -25 -6 0 0 11 13 25 13 14 25 25 27 25 2 0 -4 -11 -13 -25z m-663 -59 c16 -17 10 -23 -21 -24 -33 -1 -38 9 -15 28 8 7 16 22 16 34 2 18 2 17 6 -4 3 -14 9 -29 14 -34z m789 12 c0 -4 -5 -10 -11 -14 -19 -11 -2 -89 31 -143 17 -28 29 -55 26 -59 -3 -5 10 -25 29 -45 l35 -36 17 25 c10 14 34 46 54 72 63 82 91 137 83 166 l-6 26 70 0 c80 0 82 -2 82 -84 0 -44 -8 -67 -36 -104 -1 -2 -18 -7 -37 -12 -27 -6 -39 -4 -51 8 -15 15 -16 15 -16 0 0 -9 7 -24 15 -32 13 -12 14 -20 5 -37 -9 -17 -9 -24 2 -36 12 -12 18 -11 43 8 l28 23 -7 -35 c-3 -19 -9 -64 -12 -101 -7 -71 -14 -75 -56 -35 -7 7 -33 28 -57 47 -24 19 -39 36 -33 38 16 5 -1 35 -32 55 -24 16 -25 16 -38 -10 -7 -15 -22 -29 -32 -31 -11 -3 -16 0 -12 7 4 6 2 11 -4 11 -7 0 -10 7 -6 15 8 23 -27 19 -49 -5 -18 -19 -17 -20 3 -20 12 0 22 -6 22 -13 0 -17 -45 -38 -64 -31 -8 3 -36 -15 -65 -40 -29 -25 -56 -46 -61 -46 -16 0 -12 156 3 169 9 7 17 7 24 0 14 -14 43 0 43 22 0 26 -48 49 -61 28 -7 -11 -9 -11 -9 0 0 7 -6 11 -13 8 -24 -9 -56 72 -50 129 10 115 15 119 121 119 45 0 82 -3 82 -7z m123 -4 c13 -5 13 -8 -3 -24 -11 -11 -17 -28 -15 -42 4 -22 4 -22 -10 -4 -18 23 -18 31 -5 57 12 21 12 21 33 13z m812 -23 c-6 -4 -25 -13 -42 -19 -35 -12 -45 0 -15 17 21 13 70 15 57 2z m-1795 -37 c0 -21 -31 -72 -46 -76 -38 -9 -69 6 -72 36 -6 51 43 84 91 60 15 -8 27 -17 27 -20z m184 20 c10 -4 16 -19 17 -38 0 -26 2 -28 9 -11 7 18 8 18 15 -8 9 -33 7 -35 -31 -43 -53 -10 -103 56 -69 90 17 17 34 20 59 10z m1921 -24 c3 -5 4 -10 1 -10 -3 0 -8 5 -11 10 -3 6 -4 10 -1 10 3 0 8 -4 11 -10z m-388 -7 c-4 -3 -10 -3 -14 0 -3 4 0 7 7 7 7 0 10 -3 7 -7z m-717 -144 c0 -12 -37 -12 -44 0 -7 11 14 20 32 13 6 -2 12 -8 12 -13z m690 -55 c0 -6 10 -18 23 -27 21 -14 21 -15 5 -34 -10 -11 -18 -25 -18 -31 0 -7 7 -9 18 -5 24 8 10 -4 -73 -67 -38 -29 -73 -58 -77 -64 -5 -8 -10 -8 -19 1 -9 9 -4 40 19 130 17 65 36 130 42 144 l12 26 34 -30 c19 -17 34 -36 34 -43z m170 68 c0 -11 -22 -32 -32 -32 -5 0 -4 9 2 20 11 20 30 28 30 12z m150 -12 c6 -11 7 -20 2 -20 -6 0 -12 9 -15 20 -3 11 -3 20 -1 20 2 0 8 -9 14 -20z m209 -45 c11 -36 21 -71 21 -77 0 -6 14 -42 32 -80 17 -37 28 -71 25 -74 -4 -4 -29 11 -57 32 -51 39 -61 50 -35 40 8 -3 15 -1 15 4 0 13 -80 90 -93 90 -6 0 0 12 14 26 13 14 22 26 20 27 -10 5 11 77 23 77 7 0 23 -29 35 -65z m-1242 -2 c-4 -3 -7 0 -7 7 0 7 3 10 7 7 3 -4 3 -10 0 -14z m-489 -58 c-3 -3 -9 2 -12 12 -6 14 -5 15 5 6 7 -7 10 -15 7 -18z m899 -22 c-4 -3 -7 0 -7 7 0 7 3 10 7 7 3 -4 3 -10 0 -14z m788 -63 c3 -5 4 -10 1 -10 -3 0 -8 5 -11 10 -3 6 -4 10 -1 10 3 0 8 -4 11 -10z"/>
 <path d="M2380 890 c-11 -7 -7 -10 17 -10 17 0 40 -3 50 -6 16 -5 16 -4 -1 10 -22 18 -44 20 -66 6z"/>
 <path d="M1296 603 c-4 -5 -13 -8 -19 -8 -7 0 -13 -10 -15 -22 -4 -30 21 -21 36 13 12 25 11 30 -2 17z"/>
 </g>
<g id="layer117" fill="#b8a79a" stroke="none">
 <path d="M0 600 l0 -600 1500 0 1500 0 0 600 0 600 -1500 0 -1500 0 0 -600z m1576 315 c18 -14 16 -15 -21 -8 -22 5 -84 7 -138 6 -79 -1 -105 -6 -133 -22 -42 -25 -45 -25 -39 -6 3 8 7 22 10 30 7 22 292 22 321 0z m912 -19 c46 -23 85 -56 66 -56 -5 1 -20 7 -34 15 -14 8 -32 14 -40 14 -10 0 -11 -2 -2 -6 25 -10 11 -19 -23 -15 -43 5 -48 -17 -10 -46 15 -12 25 -30 25 -46 0 -24 4 -26 40 -26 35 0 43 -4 58 -30 18 -32 32 -39 32 -15 0 15 12 20 23 9 11 -11 -13 -43 -44 -59 -45 -24 -80 -16 -107 25 -26 39 -42 49 -42 27 0 -8 -9 -24 -19 -36 l-19 -22 -18 30 c-10 17 -21 31 -24 31 -3 -1 -14 -15 -25 -33 -13 -21 -30 -33 -48 -35 -27 -3 -107 34 -107 50 0 5 -6 6 -12 2 -10 -5 -10 -4 -1 6 7 7 21 14 31 15 10 0 29 9 42 18 14 9 42 17 62 17 34 0 39 3 44 29 4 16 17 34 30 42 22 12 32 38 18 52 -3 3 -18 1 -32 -4 -17 -7 -27 -6 -32 1 -4 6 -18 8 -32 5 -28 -7 -32 -4 -42 38 l-6 27 100 0 c87 0 107 -3 148 -24z m-1264 -61 c-9 -14 -21 -25 -27 -25 -6 0 0 11 13 25 13 14 25 25 27 25 2 0 -4 -11 -13 -25z m-663 -59 c16 -17 10 -23 -21 -24 -33 -1 -38 9 -15 28 8 7 16 22 16 34 2 18 2 17 6 -4 3 -14 9 -29 14 -34z m789 12 c0 -4 -5 -10 -11 -14 -19 -11 -2 -89 31 -143 17 -28 29 -55 26 -59 -3 -5 10 -25 29 -45 l35 -36 17 25 c10 14 34 46 54 72 63 82 91 137 83 166 l-6 26 70 0 c80 0 82 -2 82 -84 0 -44 -8 -67 -36 -104 -1 -2 -18 -7 -37 -12 -27 -6 -39 -4 -51 8 -15 15 -16 15 -16 0 0 -9 7 -24 15 -32 13 -12 14 -20 5 -37 -9 -17 -9 -24 2 -36 12 -12 18 -11 43 8 l28 23 -7 -35 c-3 -19 -9 -64 -12 -101 -7 -71 -14 -75 -56 -35 -7 7 -33 28 -57 47 -24 19 -39 36 -33 38 16 5 -1 35 -32 55 -24 16 -25 16 -38 -10 -7 -15 -22 -29 -32 -31 -11 -3 -16 0 -12 7 4 6 2 11 -4 11 -7 0 -10 7 -6 15 8 23 -27 19 -49 -5 -18 -19 -17 -20 3 -20 12 0 22 -6 22 -13 0 -17 -45 -38 -64 -31 -8 3 -36 -15 -65 -40 -29 -25 -56 -46 -61 -46 -16 0 -12 156 3 169 9 7 17 7 24 0 14 -14 43 0 43 22 0 26 -48 49 -61 28 -7 -11 -9 -11 -9 0 0 7 -6 11 -13 8 -24 -9 -56 72 -50 129 10 115 15 119 121 119 45 0 82 -3 82 -7z m123 -4 c13 -5 13 -8 -3 -24 -11 -11 -17 -28 -15 -42 4 -22 4 -22 -10 -4 -18 23 -18 31 -5 57 12 21 12 21 33 13z m812 -23 c-6 -4 -25 -13 -42 -19 -35 -12 -45 0 -15 17 21 13 70 15 57 2z m-1795 -37 c0 -21 -31 -72 -46 -76 -38 -9 -69 6 -72 36 -6 51 43 84 91 60 15 -8 27 -17 27 -20z m184 20 c10 -4 16 -19 17 -38 0 -26 2 -28 9 -11 7 18 8 18 15 -8 9 -33 7 -35 -31 -43 -53 -10 -103 56 -69 90 17 17 34 20 59 10z m1921 -24 c3 -5 4 -10 1 -10 -3 0 -8 5 -11 10 -3 6 -4 10 -1 10 3 0 8 -4 11 -10z m-388 -7 c-4 -3 -10 -3 -14 0 -3 4 0 7 7 7 7 0 10 -3 7 -7z m-717 -144 c0 -12 -37 -12 -44 0 -7 11 14 20 32 13 6 -2 12 -8 12 -13z m690 -55 c0 -6 10 -18 23 -27 21 -14 21 -15 5 -34 -10 -11 -18 -25 -18 -31 0 -7 7 -9 18 -5 24 8 10 -4 -73 -67 -38 -29 -73 -58 -77 -64 -5 -8 -10 -8 -19 1 -9 9 -4 40 19 130 17 65 36 130 42 144 l12 26 34 -30 c19 -17 34 -36 34 -43z m170 68 c0 -11 -22 -32 -32 -32 -5 0 -4 9 2 20 11 20 30 28 30 12z m150 -12 c6 -11 7 -20 2 -20 -6 0 -12 9 -15 20 -3 11 -3 20 -1 20 2 0 8 -9 14 -20z m209 -45 c11 -36 21 -71 21 -77 0 -6 14 -42 32 -80 17 -37 28 -71 25 -74 -4 -4 -29 11 -57 32 -51 39 -61 50 -35 40 8 -3 15 -1 15 4 0 13 -80 90 -93 90 -6 0 0 12 14 26 13 14 22 26 20 27 -10 5 11 77 23 77 7 0 23 -29 35 -65z m-1242 -2 c-4 -3 -7 0 -7 7 0 7 3 10 7 7 3 -4 3 -10 0 -14z m1424 -23 c28 -16 25 -58 -6 -72 -19 -8 -28 -8 -40 2 -20 17 -19 57 3 69 21 13 20 13 43 1z m-1913 -35 c-3 -3 -9 2 -12 12 -6 14 -5 15 5 6 7 -7 10 -15 7 -18z m899 -22 c-4 -3 -7 0 -7 7 0 7 3 10 7 7 3 -4 3 -10 0 -14z m788 -63 c3 -5 4 -10 1 -10 -3 0 -8 5 -11 10 -3 6 -4 10 -1 10 3 0 8 -4 11 -10z"/>
 <path d="M2380 890 c-11 -7 -7 -10 17 -10 17 0 40 -3 50 -6 16 -5 16 -4 -1 10 -22 18 -44 20 -66 6z"/>
 <path d="M1296 603 c-4 -5 -13 -8 -19 -8 -7 0 -13 -10 -15 -22 -4 -30 21 -21 36 13 12 25 11 30 -2 17z"/>
 <path d="M2858 483 c6 -2 18 -2 25 0 6 3 1 5 -13 5 -14 0 -19 -2 -12 -5z"/>
 </g>
<g id="layer118" fill="#c7a696" stroke="none">
 <path d="M0 600 l0 -600 1500 0 1500 0 0 600 0 600 -1500 0 -1500 0 0 -600z m1586 315 c18 -15 16 -15 -26 -8 -87 14 -225 6 -271 -17 -24 -11 -43 -20 -44 -20 -1 0 0 14 3 30 l4 30 157 0 c127 0 161 -3 177 -15z m899 -5 c-2 -4 12 -15 32 -26 20 -10 40 -29 44 -41 10 -27 -5 -27 -33 0 -23 21 -39 22 -31 1 5 -14 3 -14 -15 -3 -14 9 -27 10 -42 3 -22 -10 -22 -11 16 -49 21 -22 32 -41 26 -43 -25 -8 -10 -20 25 -20 28 0 42 -6 58 -26 11 -14 24 -26 28 -26 12 0 8 18 -9 34 -20 21 -9 20 27 -1 16 -10 29 -22 29 -28 0 -17 -81 -65 -110 -65 -31 1 -52 17 -68 53 -6 15 -16 26 -21 23 -14 -9 -32 -66 -20 -66 5 0 9 -12 9 -26 0 -15 -4 -23 -11 -19 -5 4 -19 -1 -30 -11 -16 -14 -19 -15 -19 -2 0 9 7 21 15 28 13 10 12 17 -8 51 -12 21 -24 39 -27 39 -3 -1 -14 -15 -25 -33 -27 -42 -69 -47 -122 -14 -21 13 -42 24 -48 25 -18 1 -16 18 5 37 18 16 20 17 14 2 -11 -31 3 -18 20 18 13 26 26 37 56 46 22 7 43 10 46 6 10 -9 -6 -27 -24 -27 -22 0 -62 -27 -62 -42 0 -6 9 -3 20 7 12 11 35 19 54 18 27 -1 37 4 47 26 17 33 34 51 48 51 6 0 11 9 11 20 0 26 -45 28 -59 3 -9 -16 -10 -16 -11 4 0 19 -4 22 -29 17 -31 -7 -35 -3 -45 39 l-7 28 125 -2 c69 -1 123 -5 121 -9z m-1261 -75 c-9 -14 -21 -25 -28 -25 -6 0 -2 -6 8 -12 12 -6 43 -8 81 -5 69 7 82 2 59 -21 -23 -23 -10 -85 31 -146 18 -28 29 -53 24 -57 -5 -3 6 -22 26 -42 l35 -36 17 25 c10 14 34 46 54 72 63 82 91 137 83 166 l-6 26 71 0 70 0 11 -40 c12 -43 1 -100 -24 -133 -21 -28 -80 -38 -100 -19 -15 15 -16 15 -16 0 0 -9 7 -24 15 -32 13 -12 14 -20 5 -37 -10 -17 -9 -24 3 -36 14 -14 18 -13 42 11 l27 27 -6 -38 c-3 -21 -9 -68 -12 -106 l-7 -68 -26 17 c-51 33 -122 99 -112 102 15 5 -3 36 -33 55 -24 16 -25 16 -38 -10 -7 -15 -22 -29 -32 -31 -11 -3 -16 0 -12 7 4 6 2 11 -4 11 -7 0 -10 7 -6 15 8 23 -27 19 -49 -5 -18 -19 -17 -20 3 -20 12 0 22 -6 22 -13 0 -17 -45 -38 -64 -31 -8 3 -36 -15 -65 -40 -29 -25 -56 -46 -61 -46 -6 0 -10 34 -10 78 0 80 12 111 35 92 18 -15 45 -1 45 21 0 26 -48 49 -61 28 -7 -11 -9 -11 -9 0 0 7 -6 11 -15 7 -10 -4 -21 8 -34 38 -29 62 -17 168 24 222 40 53 69 75 39 29z m-663 -59 c16 -17 10 -23 -21 -24 -33 -1 -38 9 -15 28 8 7 16 24 16 39 2 24 2 24 6 -4 3 -16 9 -34 14 -39z m706 37 c-4 -3 -7 0 -7 7 0 7 3 10 7 7 3 -4 3 -10 0 -14z m224 -23 c5 0 9 -4 9 -10 0 -5 -6 -10 -14 -10 -20 0 -28 -15 -32 -57 -4 -41 -9 -50 -17 -28 -4 8 -2 15 3 15 6 0 5 8 -2 19 -15 25 7 85 29 77 8 -4 19 -6 24 -6z m-1001 -71 c0 -20 -30 -67 -46 -73 -9 -4 -32 -2 -51 5 -29 9 -32 14 -27 37 14 55 53 78 97 56 15 -8 27 -19 27 -25z m184 25 c10 -4 16 -19 17 -38 0 -24 2 -27 8 -12 7 18 8 18 14 2 13 -34 7 -45 -29 -52 -28 -5 -40 -2 -54 12 -49 51 -19 112 44 88z m793 -121 c-4 -3 -7 0 -7 7 0 7 3 10 7 7 3 -4 3 -10 0 -14z m723 -122 c0 -6 6 -11 14 -11 22 0 25 -23 7 -44 -15 -18 -15 -19 14 -12 l30 7 -35 -30 c-19 -17 -58 -46 -86 -65 -28 -19 -56 -42 -63 -50 -20 -24 -41 -19 -41 9 0 13 6 44 14 67 8 24 20 68 27 98 6 30 19 71 28 90 l15 35 38 -41 c21 -23 38 -46 38 -53z m162 74 c4 -21 1 -25 -18 -25 -27 0 -28 3 -14 31 14 26 27 24 32 -6z m158 -11 c0 -19 -16 -18 -24 2 -11 27 -7 37 9 24 8 -7 15 -19 15 -26z m-1020 5 c0 -12 -37 -12 -44 0 -7 11 14 20 32 13 6 -2 12 -8 12 -13z m1208 -6 c6 -16 18 -55 27 -88 9 -33 27 -84 41 -113 38 -83 33 -89 -33 -39 -71 52 -91 70 -70 63 9 -3 25 -9 35 -12 13 -4 11 -1 -5 14 -13 11 -23 25 -23 31 0 6 -4 11 -10 11 -5 0 -19 9 -31 21 -15 15 -18 24 -10 32 6 6 11 19 11 29 0 10 4 18 9 18 5 0 11 14 15 30 7 38 30 39 44 3z m-1231 -40 c-4 -3 -7 0 -7 7 0 7 3 10 7 7 3 -4 3 -10 0 -14z m1424 -23 c28 -16 25 -58 -6 -72 -19 -8 -28 -8 -40 2 -20 17 -19 57 3 69 21 13 20 13 43 1z m-1918 -41 c-8 -8 -13 -7 -18 2 -6 8 -4 10 5 4 10 -6 12 -4 6 11 -6 15 -5 17 5 7 9 -10 10 -16 2 -24z m904 -16 c-4 -3 -7 0 -7 7 0 7 3 10 7 7 3 -4 3 -10 0 -14z"/>
 <path d="M2394 889 c-3 -5 6 -9 20 -9 31 0 34 6 6 13 -11 3 -23 1 -26 -4z"/>
 <path d="M1296 603 c-4 -5 -13 -8 -19 -8 -7 0 -13 -10 -15 -22 -4 -30 21 -21 36 13 12 25 11 30 -2 17z"/>
 <path d="M2858 483 c6 -2 18 -2 25 0 6 3 1 5 -13 5 -14 0 -19 -2 -12 -5z"/>
 </g>
<g id="layer119" fill="#bbb0a8" stroke="none">
 <path d="M0 600 l0 -600 1500 0 1500 0 0 600 0 600 -1500 0 -1500 0 0 -600z m1586 315 c17 -13 15 -14 -32 -10 -28 2 -68 0 -88 -5 -32 -7 -37 -6 -32 7 5 11 2 13 -10 9 -8 -3 -24 -6 -35 -6 -10 0 -18 -5 -16 -12 1 -7 -4 -12 -12 -13 -23 0 -37 -31 -21 -49 7 -9 15 -14 18 -11 3 2 11 -3 18 -13 7 -9 14 -12 14 -5 0 6 23 14 53 18 44 6 59 3 87 -14 18 -11 37 -18 42 -15 5 3 15 1 21 -5 7 -5 46 -11 87 -13 l74 -3 8 -35 c9 -43 -5 -128 -31 -184 -18 -38 -38 -138 -44 -215 l-2 -34 -45 36 c-25 20 -56 42 -70 48 -14 6 -33 15 -43 20 -9 5 -27 7 -40 4 -12 -3 -57 -7 -100 -9 -75 -4 -80 -6 -122 -45 -25 -23 -49 -41 -55 -41 -6 0 -10 35 -10 90 0 82 -3 97 -31 152 -29 57 -31 68 -25 127 6 66 31 117 83 170 12 13 23 34 23 47 l0 24 158 0 c124 0 162 -3 178 -15z m899 -5 c-2 -4 12 -15 32 -26 20 -10 40 -29 44 -41 10 -27 -5 -27 -33 0 -23 21 -39 22 -31 1 5 -14 3 -14 -15 -3 -14 9 -27 10 -42 3 -22 -10 -22 -11 16 -49 21 -22 32 -41 26 -43 -25 -8 -10 -20 25 -20 29 0 42 -6 60 -28 12 -16 25 -25 29 -21 4 4 -1 16 -11 27 -10 11 -15 20 -11 20 15 0 66 -35 66 -45 0 -17 -81 -65 -110 -65 -31 1 -52 17 -68 53 -6 15 -16 26 -21 23 -14 -9 -32 -66 -20 -66 5 0 9 -12 9 -26 0 -15 -4 -23 -11 -19 -5 4 -19 -1 -30 -11 -16 -14 -19 -15 -19 -2 0 9 7 21 15 28 13 10 12 17 -8 51 -12 21 -24 39 -27 39 -3 -1 -14 -15 -25 -33 -27 -42 -69 -47 -122 -14 -21 13 -42 24 -48 25 -18 1 -16 18 5 37 18 16 20 17 14 2 -11 -31 3 -18 20 18 13 26 26 37 56 46 22 7 43 10 46 6 10 -9 -6 -27 -24 -27 -22 0 -62 -27 -62 -42 0 -6 9 -3 20 7 12 11 35 19 54 18 27 -1 37 4 47 26 17 33 34 51 48 51 6 0 11 9 11 20 0 26 -45 28 -59 3 -9 -16 -10 -16 -11 4 0 19 -4 22 -29 17 -31 -7 -35 -3 -45 39 l-7 28 125 -2 c69 -1 123 -5 121 -9z m-1924 -134 c16 -17 10 -23 -21 -24 -33 -1 -38 9 -15 28 8 7 16 24 16 39 2 24 2 24 6 -4 3 -16 9 -34 14 -39z m-71 -57 c0 -20 -30 -67 -46 -73 -9 -4 -32 -2 -51 5 -29 9 -32 14 -27 37 14 55 53 78 97 56 15 -8 27 -19 27 -25z m194 15 c9 -8 13 -20 10 -26 -4 -6 -2 -8 3 -5 11 7 23 -13 23 -38 0 -8 -15 -17 -36 -21 -39 -7 -66 11 -78 52 -13 43 45 71 78 38z m1506 -233 c0 -6 6 -11 14 -11 25 0 29 -20 9 -42 -18 -21 -18 -21 12 -14 l30 7 -35 -30 c-19 -17 -58 -46 -86 -65 -28 -19 -56 -42 -63 -50 -20 -24 -41 -19 -41 9 0 13 6 44 14 67 8 24 20 68 27 98 6 30 19 71 28 90 l15 35 38 -41 c21 -23 38 -46 38 -53z m162 74 c4 -21 1 -25 -18 -25 -27 0 -28 3 -14 31 14 26 27 24 32 -6z m158 -11 c0 -19 -16 -18 -24 2 -11 27 -7 37 9 24 8 -7 15 -19 15 -26z m188 -1 c6 -16 18 -55 27 -88 9 -33 27 -84 41 -113 37 -81 32 -90 -26 -44 -19 15 -52 39 -72 52 -43 29 -43 38 1 15 17 -8 31 -13 31 -10 0 3 -21 26 -46 51 -32 33 -42 50 -35 57 6 6 11 19 11 29 0 10 4 18 9 18 5 0 11 14 15 30 7 38 30 39 44 3z m193 -63 c28 -16 25 -58 -6 -72 -19 -8 -28 -8 -40 2 -20 17 -19 57 3 69 21 13 20 13 43 1z m-1918 -41 c-8 -8 -13 -7 -18 2 -6 8 -4 10 5 4 10 -6 12 -4 6 11 -6 15 -5 17 5 7 9 -10 10 -16 2 -24z m904 -16 c-4 -3 -7 0 -7 7 0 7 3 10 7 7 3 -4 3 -10 0 -14z"/>
 <path d="M1453 913 c4 -3 10 -3 14 0 3 4 0 7 -7 7 -7 0 -10 -3 -7 -7z"/>
 <path d="M1325 900 c-8 -13 5 -13 25 0 13 8 13 10 -2 10 -9 0 -20 -4 -23 -10z"/>
 <path d="M1270 861 c0 -7 -4 -9 -10 -6 -5 3 -10 1 -10 -4 0 -6 4 -11 9 -11 13 0 25 20 17 27 -3 4 -6 1 -6 -6z"/>
 <path d="M1340 755 c-17 -20 -6 -58 37 -130 43 -70 48 -75 89 -75 25 0 38 9 66 45 49 62 82 129 75 148 -8 22 -52 22 -74 0 -10 -10 -25 -18 -33 -18 -8 0 -19 -10 -26 -22 -6 -13 -14 -20 -19 -15 -4 4 -5 -4 -1 -18 5 -17 0 -13 -14 12 -23 43 -63 88 -77 88 -6 0 -16 -7 -23 -15z m170 -53 c0 -5 -7 -17 -15 -28 -14 -18 -14 -17 -4 9 12 27 19 34 19 19z m-43 -79 c-4 -3 -7 0 -7 7 0 7 3 10 7 7 3 -4 3 -10 0 -14z m21 -51 c4 -14 -34 -16 -42 -3 -6 10 13 21 28 17 6 -1 12 -8 14 -14z"/>
 <path d="M1277 583 c-4 -3 -7 -11 -7 -17 0 -6 5 -5 12 2 6 6 9 14 7 17 -3 3 -9 2 -12 -2z"/>
 <path d="M1630 570 c0 -5 5 -10 11 -10 5 0 7 5 4 10 -3 6 -8 10 -11 10 -2 0 -4 -4 -4 -10z"/>
 <path d="M1678 552 c-16 -9 -28 -23 -28 -30 0 -8 13 -3 35 14 50 38 45 49 -7 16z"/>
 <path d="M1253 523 c4 -3 10 -3 14 0 3 4 0 7 -7 7 -7 0 -10 -3 -7 -7z"/>
 <path d="M2394 889 c-3 -5 6 -9 20 -9 31 0 34 6 6 13 -11 3 -23 1 -26 -4z"/>
 <path d="M2858 483 c6 -2 18 -2 25 0 6 3 1 5 -13 5 -14 0 -19 -2 -12 -5z"/>
 </g>
<g id="layer120" fill="#ccb7ab" stroke="none">
 <path d="M0 600 l0 -600 1500 0 1500 0 0 600 0 600 -1500 0 -1500 0 0 -600z m1586 315 c17 -13 15 -14 -32 -10 -28 2 -67 0 -87 -5 -21 -4 -37 -4 -37 1 0 5 -13 9 -30 9 -18 0 -29 -5 -27 -12 1 -7 -4 -12 -12 -13 -23 0 -37 -31 -21 -49 7 -9 15 -14 18 -11 3 2 11 -3 18 -13 7 -9 14 -12 14 -5 0 6 23 14 53 18 44 6 59 3 87 -14 18 -11 37 -18 42 -15 5 3 15 1 21 -5 7 -5 46 -11 87 -13 l74 -3 8 -40 c10 -45 -4 -125 -29 -170 -18 -33 -31 -96 -40 -193 -3 -34 -8 -62 -11 -62 -3 0 -30 20 -60 45 -30 25 -63 45 -73 45 -10 0 -21 5 -24 10 -4 6 -21 8 -38 5 -18 -3 -65 -7 -105 -10 -69 -3 -76 -6 -117 -44 -25 -23 -49 -41 -55 -41 -6 0 -10 35 -10 90 0 82 -3 97 -31 152 -28 56 -31 68 -26 125 7 67 36 130 82 173 14 13 25 34 25 47 l0 23 158 0 c124 0 162 -3 178 -15z m873 4 c44 -1 66 -4 52 -8 -23 -6 -23 -7 12 -26 24 -13 38 -29 42 -47 4 -15 11 -28 17 -28 6 0 9 -2 6 -5 -7 -8 -58 16 -53 24 2 4 -6 13 -17 20 -18 11 -20 11 -15 -3 5 -13 -1 -15 -41 -10 l-47 5 40 -36 c36 -32 38 -38 26 -57 -12 -19 -11 -20 13 -14 29 7 86 -17 86 -36 0 -6 3 -8 7 -5 3 4 -4 18 -17 32 -13 14 -20 25 -16 25 15 0 86 -41 86 -49 0 -5 3 -17 7 -27 4 -12 3 -15 -5 -10 -7 4 -22 -2 -34 -14 -26 -24 -54 -33 -94 -28 -22 2 -33 12 -47 41 -25 49 -38 38 -33 -28 4 -59 0 -71 -20 -54 -10 9 -15 7 -20 -5 -11 -29 -21 -17 -21 27 0 23 -5 52 -12 65 l-12 23 -22 -33 c-30 -44 -78 -49 -129 -14 l-36 24 -6 -21 c-4 -16 -8 -19 -17 -10 -8 8 -8 20 0 46 11 32 41 70 41 52 0 -4 14 5 31 19 22 19 42 26 71 26 l41 0 -22 -19 c-19 -17 -20 -19 -5 -25 9 -4 18 -5 18 -4 15 26 25 62 20 70 -4 7 -2 8 4 4 14 -8 52 10 52 25 0 18 -31 21 -49 5 -16 -15 -19 -15 -24 -1 -4 8 -17 15 -31 15 -27 0 -30 3 -40 42 -6 26 -4 27 36 31 24 2 56 3 72 1 16 -2 63 -4 105 -5z m-1906 -107 c2 -15 7 -34 11 -43 5 -13 0 -16 -24 -17 -34 -1 -37 4 -13 30 13 15 14 23 5 43 -9 19 -8 23 2 19 8 -3 16 -17 19 -32z m1696 6 c-2 -2 -20 -16 -39 -33 l-35 -30 29 33 c17 17 34 32 40 32 5 0 7 -1 5 -2z m281 -58 c0 -5 -4 -10 -9 -10 -6 0 -13 5 -16 10 -3 6 1 10 9 10 9 0 16 -4 16 -10z m-2051 -25 c12 -11 12 -19 1 -45 -16 -40 -41 -53 -86 -44 -33 6 -35 8 -28 37 8 40 24 65 44 70 21 6 52 -3 69 -18z m211 0 c6 -8 8 -20 4 -26 -4 -7 -3 -9 3 -6 11 7 23 -13 23 -38 0 -23 -67 -31 -90 -10 -24 22 -34 63 -19 81 15 18 63 18 79 -1z m1662 -164 c2 -19 -2 -24 -20 -26 -18 -1 -22 3 -20 19 4 26 20 47 30 37 4 -3 9 -17 10 -30z m144 30 c-4 -5 -1 -11 5 -13 6 -2 9 -15 7 -28 l-3 -25 -13 23 c-13 22 -10 52 3 52 4 0 4 -4 1 -9z m-366 -11 c0 -5 10 -20 23 -33 76 -81 78 -86 67 -107 -11 -20 -10 -21 9 -10 39 21 21 -7 -31 -48 -100 -78 -148 -112 -158 -112 -15 0 -12 38 10 115 11 38 20 78 20 88 0 22 42 117 53 117 4 0 7 -4 7 -10z m568 -27 c6 -16 19 -55 28 -88 9 -33 28 -86 42 -118 14 -32 22 -60 19 -63 -3 -3 -39 18 -81 47 -77 53 -93 74 -37 44 17 -8 31 -14 31 -12 0 8 -41 51 -70 72 -28 21 -29 24 -15 38 8 9 15 23 15 31 0 9 4 16 9 16 5 0 11 14 15 30 7 38 30 39 44 3z m193 -63 c28 -16 25 -58 -6 -72 -19 -8 -28 -8 -40 2 -20 17 -19 57 3 69 21 13 20 13 43 1z m-1915 -39 c-9 -14 -26 -14 -26 0 0 5 5 7 12 3 8 -5 9 -1 4 12 -5 14 -4 16 5 7 6 -6 8 -16 5 -22z m901 -23 c-3 -7 -5 -2 -5 12 0 14 2 19 5 13 2 -7 2 -19 0 -25z"/>
 <path d="M1453 913 c4 -3 10 -3 14 0 3 4 0 7 -7 7 -7 0 -10 -3 -7 -7z"/>
 <path d="M1325 900 c-8 -13 5 -13 25 0 13 8 13 10 -2 10 -9 0 -20 -4 -23 -10z"/>
 <path d="M1270 861 c0 -7 -4 -9 -10 -6 -5 3 -10 1 -10 -4 0 -6 4 -11 9 -11 13 0 25 20 17 27 -3 4 -6 1 -6 -6z"/>
 <path d="M1340 755 c-18 -22 0 -77 48 -146 32 -46 43 -54 73 -57 32 -3 39 2 71 42 49 63 82 130 75 149 -8 22 -52 22 -74 0 -10 -10 -25 -18 -33 -18 -8 0 -19 -10 -26 -22 -6 -13 -14 -20 -19 -15 -4 4 -6 0 -3 -8 18 -50 15 -58 -5 -16 -28 56 -67 106 -83 106 -6 0 -17 -7 -24 -15z m170 -53 c0 -5 -7 -17 -15 -28 -14 -18 -14 -17 -4 9 12 27 19 34 19 19z m-20 -133 c0 -10 -33 -12 -43 -3 -3 3 0 12 6 19 12 13 37 2 37 -16z"/>
 <path d="M1277 583 c-4 -3 -7 -11 -7 -17 0 -6 5 -5 12 2 6 6 9 14 7 17 -3 3 -9 2 -12 -2z"/>
 <path d="M1630 570 c0 -5 5 -10 11 -10 5 0 7 5 4 10 -3 6 -8 10 -11 10 -2 0 -4 -4 -4 -10z"/>
 <path d="M1678 552 c-16 -9 -28 -23 -28 -30 0 -8 13 -3 35 14 50 38 45 49 -7 16z"/>
 <path d="M1253 523 c4 -3 10 -3 14 0 3 4 0 7 -7 7 -7 0 -10 -3 -7 -7z"/>
 <path d="M2423 883 c4 -3 10 -3 14 0 3 4 0 7 -7 7 -7 0 -10 -3 -7 -7z"/>
 <path d="M2238 734 c-16 -8 -28 -19 -28 -25 0 -5 14 0 30 13 43 31 42 36 -2 12z"/>
 <path d="M2165 710 c3 -5 8 -10 11 -10 3 0 2 5 -1 10 -3 6 -8 10 -11 10 -3 0 -2 -4 1 -10z"/>
 <path d="M2858 483 c6 -2 18 -2 25 0 6 3 1 5 -13 5 -14 0 -19 -2 -12 -5z"/>
 </g>
<g id="layer121" fill="#c6bcc6" stroke="none">
 <path d="M0 600 l0 -600 1500 0 1500 0 0 600 0 600 -1500 0 -1500 0 0 -600z m1586 315 c18 -14 18 -14 -10 -15 -21 0 -27 -4 -22 -16 3 -9 6 -19 6 -24 0 -5 9 -12 21 -15 15 -5 18 -10 9 -20 -20 -24 27 -44 92 -40 41 2 61 -2 70 -12 22 -27 15 -133 -13 -208 -34 -90 -49 -154 -49 -210 0 -25 -3 -45 -7 -45 -4 0 -28 18 -55 41 -27 22 -61 44 -76 48 -15 4 -76 6 -137 4 -106 -4 -111 -5 -137 -33 -24 -26 -59 -50 -72 -50 -3 0 -6 39 -6 88 0 76 -4 95 -30 147 -51 104 -38 197 44 293 20 24 36 52 36 63 0 18 9 19 158 19 124 0 162 -3 178 -15z m900 5 c49 0 84 -4 84 -10 0 -5 -7 -10 -15 -10 -8 0 -15 -1 -15 -3 0 -12 42 -86 55 -97 19 -16 50 -82 60 -127 3 -18 16 -51 27 -75 12 -24 31 -77 44 -118 12 -41 32 -99 45 -127 12 -29 20 -56 16 -59 -4 -4 -24 5 -44 20 -21 15 -59 41 -85 58 -51 31 -61 43 -29 33 16 -5 18 -2 14 15 -3 12 -16 28 -29 37 -24 15 -24 16 -6 32 27 23 51 154 31 167 -5 3 -25 -4 -44 -16 -50 -31 -104 -25 -125 15 -8 17 -16 32 -18 35 -6 9 -21 -24 -15 -33 9 -15 12 -83 4 -96 -6 -9 -11 -8 -20 3 -12 14 -17 12 -47 -10 -19 -15 -34 -21 -34 -14 0 7 -7 10 -15 7 -8 -4 -17 -2 -20 4 -4 5 -12 6 -18 2 -8 -5 -8 -2 0 9 7 8 10 18 6 21 -3 4 -13 -2 -20 -13 -9 -13 -21 -19 -33 -15 -11 3 -20 -1 -24 -11 -5 -13 -9 -14 -21 -4 -30 25 -15 -9 19 -43 18 -18 35 -40 38 -47 5 -15 -38 -53 -131 -117 -29 -21 -60 -42 -67 -48 -23 -17 -28 4 -15 63 7 31 18 82 25 112 14 60 56 160 68 160 5 0 8 5 8 11 0 5 -4 8 -9 5 -17 -11 13 79 41 120 34 51 69 76 89 63 12 -8 12 -10 0 -18 -9 -6 -3 -10 21 -13 31 -3 34 -1 30 19 -4 20 -18 28 -44 24 -7 -1 -11 11 -22 61 -6 25 -3 27 31 31 21 3 58 3 82 1 24 -2 81 -4 127 -4z m-1966 -10 c0 -6 -29 -10 -71 -10 -38 0 -68 3 -65 8 7 11 136 14 136 2z m32 -91 c-2 -15 1 -30 7 -33 23 -14 11 -36 -19 -36 -35 0 -36 2 -14 35 11 17 13 29 6 42 -8 15 -7 19 7 19 13 0 16 -7 13 -27z m-73 -84 c12 -11 12 -19 1 -45 -16 -40 -41 -53 -86 -44 -33 6 -35 8 -28 37 8 40 24 65 44 70 21 6 52 -3 69 -18z m211 0 c6 -8 8 -20 4 -26 -4 -7 -3 -9 3 -6 11 7 23 -13 23 -38 0 -23 -67 -31 -90 -10 -24 22 -34 63 -19 81 15 18 63 18 79 -1z m1850 -137 c0 -5 4 -7 8 -4 4 2 14 1 22 -4 11 -7 11 -14 3 -32 -7 -13 -12 -17 -12 -10 -1 6 -10 12 -20 12 -11 0 -22 6 -24 13 -3 6 -6 2 -6 -10 -2 -44 -31 -18 -31 27 0 14 7 18 30 18 17 -1 30 -5 30 -10z m351 -98 c28 -16 25 -58 -6 -72 -19 -8 -28 -8 -40 2 -20 17 -19 57 3 69 21 13 20 13 43 1z m-1915 -39 c-9 -14 -26 -14 -26 0 0 5 5 7 12 3 8 -5 9 -1 4 12 -5 14 -4 16 5 7 6 -6 8 -16 5 -22z m901 -23 c-3 -7 -5 -2 -5 12 0 14 2 19 5 13 2 -7 2 -19 0 -25z m-1597 -30 c0 -5 -6 -6 -12 -2 -10 5 -10 4 -2 -5 9 -10 17 -10 34 -1 12 6 24 10 26 7 2 -2 -18 -16 -46 -31 -44 -24 -65 -25 -42 -2 7 8 9 14 11 47 1 18 3 19 16 9 8 -7 15 -17 15 -22z m529 -28 c12 -36 7 -37 -39 -9 -32 20 -33 23 -15 30 34 13 43 10 54 -21z"/>
 <path d="M1596 733 c-6 -18 -11 -21 -31 -13 -27 10 -41 -2 -74 -65 -25 -48 -26 -64 -5 -72 15 -6 15 -8 -2 -20 -10 -7 -13 -13 -6 -13 30 0 139 163 129 193 -2 7 -7 2 -11 -10z"/>
 <path d="M1353 704 c-15 -7 -8 -27 30 -84 32 -48 54 -70 71 -70 6 0 4 5 -4 10 -12 7 -12 12 -2 22 17 17 15 43 -8 88 -17 32 -26 40 -48 39 -15 0 -32 -3 -39 -5z"/>
 <path d="M1467 663 c-4 -3 -7 -11 -7 -17 0 -6 5 -5 12 2 6 6 9 14 7 17 -3 3 -9 2 -12 -2z"/>
 <path d="M1274 568 c-4 -7 -3 -8 4 -4 12 7 16 16 8 16 -3 0 -8 -5 -12 -12z"/>
 <path d="M2356 831 c-4 -6 -4 -11 1 -11 4 0 1 -5 -7 -10 -8 -5 -10 -10 -5 -10 20 0 34 16 26 29 -6 9 -11 10 -15 2z"/>
 <path d="M2435 831 c-3 -5 -1 -12 4 -15 5 -4 12 0 14 6 3 8 6 6 6 -5 1 -10 5 -15 11 -12 5 3 23 -1 40 -10 17 -9 37 -14 43 -11 7 2 2 8 -10 11 -13 4 -20 12 -17 17 4 6 -1 8 -13 4 -10 -3 -28 1 -39 9 -23 17 -31 18 -39 6z"/>
 <path d="M2295 740 c3 -5 11 -10 16 -10 6 0 7 5 4 10 -3 6 -11 10 -16 10 -6 0 -7 -4 -4 -10z"/>
 <path d="M2486 741 c-4 -5 3 -7 14 -4 23 6 26 13 6 13 -8 0 -17 -4 -20 -9z"/>
 <path d="M2224 718 c-4 -7 -3 -8 4 -4 12 7 16 16 8 16 -3 0 -8 -5 -12 -12z"/>
 <path d="M2333 663 c-17 -47 -85 -57 -135 -21 -21 14 -29 17 -26 7 2 -8 22 -23 44 -34 27 -13 39 -25 36 -35 -4 -12 -1 -11 15 3 11 9 23 14 26 11 4 -4 13 -2 21 5 8 7 25 9 43 5 l28 -7 -19 22 c-11 11 -14 21 -8 21 5 0 8 9 5 20 -7 25 -21 26 -30 3z"/>
 <path d="M2135 593 c3 -8 5 -17 5 -19 0 -2 5 -4 10 -4 6 0 10 8 10 18 0 10 -7 19 -15 19 -10 0 -14 -6 -10 -14z"/>
 <path d="M2858 483 c6 -2 18 -2 25 0 6 3 1 5 -13 5 -14 0 -19 -2 -12 -5z"/>
 </g>
<g id="layer122" fill="#d5c6b9" stroke="none">
 <path d="M0 600 l0 -600 1500 0 1500 0 0 600 0 600 -1500 0 -1500 0 0 -600z m1568 323 l37 -17 -28 -4 c-21 -2 -27 -8 -23 -19 3 -8 6 -18 6 -23 0 -5 9 -12 21 -15 15 -5 18 -10 9 -20 -20 -24 27 -44 92 -40 42 2 61 -1 70 -13 21 -25 15 -139 -10 -196 -26 -57 -52 -173 -52 -228 0 -21 -3 -38 -7 -38 -4 0 -28 18 -55 41 -56 47 -90 59 -150 54 -24 -2 -71 -4 -106 -4 -57 -1 -67 -4 -94 -31 -28 -28 -59 -50 -72 -50 -3 0 -6 39 -6 88 0 76 -4 95 -30 147 -51 104 -38 197 44 293 20 24 36 52 36 63 0 16 10 19 78 22 184 8 203 7 240 -10z m923 -3 c46 0 79 -4 79 -10 0 -5 -7 -10 -15 -10 -8 0 -15 -1 -15 -3 0 -12 42 -86 55 -97 19 -16 50 -82 60 -127 3 -18 17 -55 31 -82 13 -28 32 -81 43 -118 10 -37 29 -92 42 -120 12 -29 20 -56 16 -59 -4 -4 -24 5 -44 20 -21 15 -59 41 -85 58 -51 31 -61 43 -29 33 16 -5 18 -2 14 15 -3 12 -16 28 -29 37 -24 15 -24 16 -6 32 27 23 51 154 31 167 -5 3 -24 -4 -43 -15 -18 -12 -50 -21 -70 -21 -31 0 -40 5 -58 36 -15 25 -23 32 -29 23 -4 -7 -5 -17 -2 -22 9 -15 12 -83 4 -96 -6 -9 -11 -8 -20 3 -12 14 -17 12 -47 -10 -19 -15 -34 -21 -34 -14 0 7 -7 10 -15 7 -8 -4 -17 -2 -20 4 -4 5 -12 6 -18 2 -8 -5 -8 -2 0 9 7 8 10 18 6 21 -3 4 -13 -2 -20 -13 -9 -13 -21 -19 -33 -15 -11 3 -20 -1 -24 -11 -5 -13 -9 -14 -21 -4 -30 25 -15 -9 19 -43 18 -18 35 -40 38 -47 5 -15 -38 -53 -131 -117 -29 -21 -60 -42 -67 -48 -23 -17 -28 4 -15 63 7 31 19 85 26 118 6 34 19 72 29 85 9 13 16 32 16 42 0 9 7 20 15 23 8 4 15 10 15 16 0 5 -4 7 -9 4 -17 -11 13 79 41 120 34 51 69 76 89 63 12 -8 12 -10 0 -18 -9 -6 -3 -10 21 -13 31 -3 34 -1 30 19 -4 20 -18 28 -44 24 -7 -1 -11 11 -22 61 -5 23 -3 27 21 31 16 3 55 3 87 1 32 -2 94 -4 137 -4z m-1971 -10 c0 -6 -29 -10 -71 -10 -38 0 -68 3 -65 8 7 11 136 14 136 2z m32 -91 c-2 -15 1 -30 7 -33 23 -14 11 -36 -19 -36 -35 0 -36 2 -14 35 11 17 13 29 6 42 -8 15 -7 19 7 19 13 0 16 -7 13 -27z m-82 -77 c17 -14 20 -23 15 -45 -10 -40 -45 -60 -89 -51 -41 7 -44 19 -20 69 21 46 58 56 94 27z m229 -18 c31 -40 28 -71 -9 -79 -43 -9 -64 1 -82 39 -15 31 -15 35 0 50 25 25 67 20 91 -10z m1841 -126 c0 -5 4 -7 8 -4 4 2 14 1 22 -4 11 -7 11 -14 3 -32 -7 -13 -12 -17 -12 -10 -1 6 -10 12 -20 12 -11 0 -22 6 -24 13 -3 6 -6 2 -6 -10 -2 -44 -31 -18 -31 27 0 14 7 18 30 18 17 -1 30 -5 30 -10z m351 -98 c28 -16 25 -58 -6 -72 -19 -8 -28 -8 -40 2 -20 17 -19 57 3 69 21 13 20 13 43 1z m-1911 -36 c0 -8 -7 -14 -15 -14 -8 0 -15 5 -15 10 0 6 5 10 11 10 5 0 7 5 3 12 -4 7 -3 8 4 4 7 -4 12 -14 12 -22z m977 -6 c-3 -8 -6 -5 -6 6 -1 11 2 17 5 13 3 -3 4 -12 1 -19z m-74 -3 c4 -8 2 -17 -3 -20 -6 -4 -10 3 -10 14 0 25 6 27 13 6z m-1603 -47 c0 -5 -6 -6 -12 -2 -10 5 -10 4 -2 -5 9 -10 17 -10 34 -1 12 6 24 10 26 7 2 -2 -18 -16 -46 -31 -44 -24 -65 -25 -42 -2 7 8 9 14 11 47 1 18 3 19 16 9 8 -7 15 -17 15 -22z m529 -28 c12 -36 7 -37 -39 -9 -32 20 -33 23 -15 30 34 13 43 10 54 -21z"/>
 <path d="M1596 733 c-6 -18 -11 -21 -31 -13 -27 10 -41 -2 -74 -65 -25 -48 -26 -64 -5 -72 15 -6 15 -8 -2 -20 -10 -7 -13 -13 -6 -13 30 0 139 163 129 193 -2 7 -7 2 -11 -10z"/>
 <path d="M1353 704 c-15 -7 -8 -27 30 -84 32 -48 54 -70 71 -70 6 0 4 5 -4 10 -12 7 -12 12 -2 22 17 17 15 43 -8 88 -17 32 -26 40 -48 39 -15 0 -32 -3 -39 -5z"/>
 <path d="M1467 663 c-4 -3 -7 -11 -7 -17 0 -6 5 -5 12 2 6 6 9 14 7 17 -3 3 -9 2 -12 -2z"/>
 <path d="M1274 568 c-4 -7 -3 -8 4 -4 12 7 16 16 8 16 -3 0 -8 -5 -12 -12z"/>
 <path d="M2356 831 c-4 -6 -4 -11 1 -11 4 0 1 -5 -7 -10 -8 -5 -10 -10 -5 -10 20 0 34 16 26 29 -6 9 -11 10 -15 2z"/>
 <path d="M2435 831 c-3 -5 -1 -12 4 -15 5 -4 12 0 14 6 3 8 6 6 6 -5 1 -10 5 -15 11 -12 5 3 23 -1 40 -10 17 -9 37 -14 43 -11 7 2 2 8 -10 11 -13 4 -20 12 -17 17 4 6 -1 8 -13 4 -10 -3 -28 1 -39 9 -23 17 -31 18 -39 6z"/>
 <path d="M2295 740 c3 -5 11 -10 16 -10 6 0 7 5 4 10 -3 6 -11 10 -16 10 -6 0 -7 -4 -4 -10z"/>
 <path d="M2486 741 c-4 -5 3 -7 14 -4 23 6 26 13 6 13 -8 0 -17 -4 -20 -9z"/>
 <path d="M2224 718 c-4 -7 -3 -8 4 -4 12 7 16 16 8 16 -3 0 -8 -5 -12 -12z"/>
 <path d="M2333 663 c-17 -47 -85 -57 -135 -21 -21 14 -29 17 -26 7 2 -8 22 -23 44 -34 27 -13 39 -25 36 -35 -4 -12 -1 -11 15 3 11 9 23 14 26 11 4 -4 13 -2 21 5 8 7 25 9 43 5 l28 -7 -19 22 c-11 11 -14 21 -8 21 5 0 8 9 5 20 -7 25 -21 26 -30 3z"/>
 <path d="M2135 593 c3 -8 5 -17 5 -19 0 -2 5 -4 10 -4 6 0 10 8 10 18 0 10 -7 19 -15 19 -10 0 -14 -6 -10 -14z"/>
 <path d="M2858 483 c6 -2 18 -2 25 0 6 3 1 5 -13 5 -14 0 -19 -2 -12 -5z"/>
 </g>
<g id="layer123" fill="#eacfb2" stroke="none">
 <path d="M0 600 l0 -600 1500 0 1500 0 0 600 0 600 -1500 0 -1500 0 0 -600z m1561 328 c53 -18 81 -39 70 -52 -6 -6 -9 -28 -8 -47 l2 -36 60 -2 c33 -1 64 -7 70 -12 19 -19 10 -160 -13 -213 -27 -61 -52 -164 -52 -217 0 -21 -3 -39 -8 -39 -4 0 -31 20 -61 44 l-54 45 -131 -1 c-128 0 -130 0 -155 -27 -24 -25 -62 -51 -75 -51 -3 0 -6 38 -6 85 0 82 -5 101 -51 187 -5 10 -9 46 -9 81 0 69 19 114 76 181 19 22 34 48 34 57 0 16 11 19 78 22 170 7 200 7 233 -5z m-984 -10 c42 -15 43 -31 1 -23 -40 7 -214 -20 -269 -42 -49 -19 -63 -9 -28 21 14 12 28 30 32 39 5 15 22 17 118 17 63 0 127 -5 146 -12z m1965 3 c26 -1 28 -3 23 -39 -4 -33 1 -44 33 -84 41 -49 49 -67 107 -253 21 -66 48 -145 61 -176 24 -57 29 -79 18 -79 -6 0 -184 117 -194 127 -3 3 5 2 18 -1 17 -6 22 -3 22 11 0 10 -10 23 -22 28 -14 6 -24 20 -26 36 -3 30 -60 69 -71 50 -5 -8 -13 -5 -25 8 -15 17 -16 25 -8 50 7 20 7 33 1 37 -6 3 -15 17 -20 31 -16 42 -20 21 -7 -39 10 -46 9 -59 -2 -72 -11 -15 -15 -15 -29 -1 -15 13 -19 13 -32 0 -17 -17 -88 -28 -103 -16 -6 5 -23 7 -38 4 -34 -7 -38 -41 -8 -68 28 -25 25 -36 -17 -70 -57 -46 -173 -125 -184 -125 -14 0 -11 52 5 98 8 22 18 62 21 89 4 26 15 62 25 78 10 17 24 59 30 95 13 70 44 124 98 171 31 28 34 34 28 69 -8 49 -6 49 149 45 66 -2 132 -4 147 -4z m-1822 -21 c0 -5 -4 -10 -10 -10 -5 0 -10 5 -10 10 0 6 5 10 10 10 6 0 10 -4 10 -10z m-164 -44 c27 5 27 4 11 -14 -21 -23 -22 -46 -2 -62 24 -20 17 -30 -20 -30 -40 0 -41 2 -18 37 17 26 17 26 -17 55 -32 27 -33 28 -8 19 14 -5 39 -8 54 -5z m-86 -114 c17 -14 20 -23 15 -45 -10 -40 -45 -60 -89 -51 -39 7 -42 14 -25 63 17 48 62 63 99 33z m229 -18 c31 -40 28 -71 -9 -79 -43 -9 -64 1 -82 39 -15 31 -15 35 0 50 25 25 67 20 91 -10z m2192 -224 c28 -16 25 -58 -6 -72 -19 -8 -28 -8 -40 2 -20 17 -19 57 3 69 21 13 20 13 43 1z m-1911 -36 c0 -8 -7 -14 -15 -14 -8 0 -15 5 -15 10 0 6 5 10 11 10 5 0 7 5 3 12 -4 7 -3 8 4 4 7 -4 12 -14 12 -22z m-695 -26 c-4 -7 1 -4 10 7 17 20 17 19 11 -7 -6 -27 6 -39 19 -18 8 12 25 13 25 1 0 -11 -116 -81 -123 -75 -3 3 4 34 16 69 17 54 22 61 34 49 8 -8 11 -20 8 -26z m1672 20 c-3 -8 -6 -5 -6 6 -1 11 2 17 5 13 3 -3 4 -12 1 -19z m-74 -3 c4 -8 2 -17 -3 -20 -6 -4 -10 3 -10 14 0 25 6 27 13 6z m-1079 -57 c13 -29 22 -55 21 -56 -2 -2 -26 8 -53 23 -56 30 -64 55 -19 55 25 0 28 2 17 15 -9 11 -9 15 -1 15 7 0 23 -24 35 -52z"/>
 <path d="M1534 700 c-44 -17 -74 -99 -43 -118 20 -12 31 -3 73 65 30 49 32 57 12 50 -8 -3 -16 -2 -18 2 -2 5 -12 5 -24 1z"/>
 <path d="M1361 691 c-11 -7 -8 -18 13 -53 14 -25 35 -53 46 -63 18 -16 20 -16 20 -2 0 10 5 17 10 17 18 0 10 45 -12 76 -24 30 -53 39 -77 25z"/>
 <path d="M2328 653 c-11 -23 -21 -29 -58 -33 -33 -4 -39 -7 -23 -11 34 -10 101 12 107 35 9 34 -11 41 -26 9z"/>
 <path d="M2580 629 c-30 -16 -32 -19 -12 -19 28 0 62 17 62 30 0 14 -10 12 -50 -11z"/>
 <path d="M2858 483 c6 -2 18 -2 25 0 6 3 1 5 -13 5 -14 0 -19 -2 -12 -5z"/>
 </g>
<g id="layer124" fill="#dad1ca" stroke="none">
 <path d="M0 600 l0 -600 1500 0 1500 0 0 600 0 600 -1500 0 -1500 0 0 -600z m1561 328 c53 -18 81 -39 70 -52 -6 -6 -9 -28 -8 -47 l2 -36 60 -2 c33 -1 64 -7 70 -12 19 -19 10 -160 -13 -213 -27 -61 -52 -164 -52 -217 0 -21 -3 -39 -8 -39 -4 0 -31 20 -61 44 l-54 45 -131 -1 c-128 0 -130 0 -155 -27 -24 -25 -62 -51 -75 -51 -3 0 -6 38 -6 85 0 82 -5 101 -51 187 -5 10 -9 46 -9 81 0 69 19 114 76 181 19 22 34 48 34 57 0 16 11 19 78 22 170 7 200 7 233 -5z m-984 -10 c42 -15 43 -31 1 -23 -40 7 -214 -20 -269 -42 -49 -19 -63 -9 -28 21 14 12 28 30 32 39 5 15 22 17 118 17 63 0 127 -5 146 -12z m1965 3 c26 -1 28 -3 23 -39 -4 -33 1 -44 33 -84 41 -49 49 -67 107 -253 21 -66 48 -145 61 -176 24 -57 29 -79 18 -79 -6 0 -184 117 -194 127 -3 3 5 2 18 -1 17 -6 22 -3 22 11 0 10 -10 23 -22 28 -14 6 -24 20 -26 36 -3 30 -60 69 -71 50 -5 -8 -13 -5 -25 8 -15 17 -16 25 -8 50 7 20 7 33 1 37 -6 3 -15 17 -20 31 -16 42 -20 21 -7 -39 10 -46 9 -59 -2 -72 -11 -15 -15 -15 -29 -1 -15 13 -19 13 -32 0 -17 -17 -88 -28 -103 -16 -6 5 -23 7 -38 4 -34 -7 -38 -41 -8 -68 28 -25 25 -36 -17 -70 -57 -46 -173 -125 -184 -125 -14 0 -11 52 5 98 8 22 18 62 21 89 4 26 15 62 25 78 10 17 24 59 30 95 13 70 44 124 98 171 31 28 34 34 28 69 -8 49 -6 49 149 45 66 -2 132 -4 147 -4z m-1822 -21 c0 -5 -4 -10 -10 -10 -5 0 -10 5 -10 10 0 6 5 10 10 10 6 0 10 -4 10 -10z m-164 -44 c27 5 27 4 11 -14 -21 -23 -22 -46 -2 -62 24 -20 17 -30 -20 -30 -40 0 -41 2 -18 37 17 26 17 26 -17 55 -32 27 -33 28 -8 19 14 -5 39 -8 54 -5z m-86 -114 c17 -14 20 -23 15 -45 -10 -40 -45 -60 -89 -51 -39 7 -42 14 -25 63 17 48 62 63 99 33z m229 -18 c31 -40 28 -71 -9 -79 -43 -9 -64 1 -82 39 -15 31 -15 35 0 50 25 25 67 20 91 -10z m2206 -234 c27 -30 7 -70 -35 -70 -42 0 -62 40 -35 70 10 11 26 20 35 20 9 0 25 -9 35 -20z m-1925 -26 c0 -8 -7 -14 -15 -14 -8 0 -15 5 -15 10 0 6 5 10 11 10 5 0 7 5 3 12 -4 7 -3 8 4 4 7 -4 12 -14 12 -22z m-677 -12 c3 8 6 6 6 -4 1 -11 9 -18 21 -18 11 0 20 -4 20 -9 0 -11 -116 -81 -123 -75 -3 3 5 34 16 70 21 64 22 65 38 45 12 -15 19 -17 22 -9z m1654 6 c-3 -8 -6 -5 -6 6 -1 11 2 17 5 13 3 -3 4 -12 1 -19z m-74 -3 c4 -8 2 -17 -3 -20 -6 -4 -10 3 -10 14 0 25 6 27 13 6z m-1096 -17 c13 -18 43 -98 36 -98 -3 0 -27 12 -54 27 -50 27 -64 53 -29 53 11 0 20 7 20 15 0 18 14 20 27 3z"/>
 <path d="M1534 700 c-44 -17 -74 -99 -43 -118 20 -12 31 -3 73 65 30 49 32 57 12 50 -8 -3 -16 -2 -18 2 -2 5 -12 5 -24 1z"/>
 <path d="M1361 691 c-11 -7 -8 -18 13 -53 14 -25 35 -53 46 -63 18 -16 20 -16 20 -2 0 10 5 17 10 17 18 0 10 45 -12 76 -24 30 -53 39 -77 25z"/>
 <path d="M2328 653 c-11 -23 -21 -29 -58 -33 -33 -4 -39 -7 -23 -11 34 -10 101 12 107 35 9 34 -11 41 -26 9z"/>
 <path d="M2580 629 c-30 -16 -32 -19 -12 -19 28 0 62 17 62 30 0 14 -10 12 -50 -11z"/>
 <path d="M2863 483 c4 -3 10 -3 14 0 3 4 0 7 -7 7 -7 0 -10 -3 -7 -7z"/>
 </g>
<g id="layer125" fill="#e7d8d0" stroke="none">
 <path d="M0 600 l0 -600 1500 0 1500 0 0 600 0 600 -1500 0 -1500 0 0 -600z m1615 306 c39 -19 62 -35 53 -35 -27 -1 -22 -30 7 -43 14 -6 25 -15 25 -21 0 -5 6 -7 14 -4 55 21 70 -140 24 -248 -25 -58 -54 -218 -42 -236 13 -22 -26 -6 -62 24 -62 53 -71 56 -204 53 l-125 -2 -37 -37 c-57 -59 -68 -52 -68 45 0 70 -4 90 -31 147 -25 53 -31 77 -30 125 2 70 15 103 70 175 23 30 41 60 41 67 0 13 42 17 220 22 68 2 83 -1 145 -32z m-982 5 c38 -24 21 -30 -65 -23 -60 4 -68 3 -68 -12 0 -14 8 -17 43 -16 61 3 65 1 35 -16 -31 -17 -35 -31 -13 -60 22 -29 18 -34 -20 -34 -40 0 -41 2 -20 34 25 37 -6 67 -78 77 -58 7 -127 -4 -127 -21 0 -5 -6 -7 -14 -4 -7 3 -16 -2 -20 -11 -3 -9 -14 -15 -24 -13 -11 2 -26 -3 -35 -11 -37 -30 -14 11 33 59 28 28 50 56 50 61 0 5 63 9 148 9 127 0 151 -3 175 -19z m1878 13 l67 -7 -9 -31 c-7 -25 -5 -36 11 -56 52 -65 74 -105 95 -177 60 -205 78 -260 96 -295 21 -41 25 -68 9 -68 -5 0 -37 19 -69 43 -33 23 -80 55 -105 70 -26 16 -46 33 -46 39 0 5 12 0 26 -11 31 -25 44 -26 44 -6 0 8 -14 22 -31 30 -20 11 -29 21 -25 32 9 21 -34 54 -61 48 -13 -3 -23 -1 -23 4 0 14 -37 20 -49 8 -8 -8 -15 -6 -25 8 -13 18 -14 18 -25 -3 -7 -13 -16 -20 -21 -17 -5 3 -12 0 -16 -6 -5 -8 -8 -8 -13 0 -6 8 -16 8 -39 0 -18 -6 -41 -9 -52 -6 -27 7 -34 -22 -10 -43 11 -9 20 -23 20 -30 0 -18 -63 -72 -132 -116 -32 -19 -58 -40 -58 -45 0 -14 -38 -11 -42 3 -6 17 40 205 62 253 10 22 24 69 30 105 13 68 46 123 103 169 26 22 28 28 22 67 l-6 44 103 0 c57 0 133 -3 169 -6z m-1748 -26 c15 -11 11 -13 -29 -16 -48 -2 -68 4 -59 19 9 13 68 11 88 -3z m-88 -48 c3 -5 1 -10 -4 -10 -6 0 -11 5 -11 10 0 6 2 10 4 10 3 0 8 -4 11 -10z m-285 -26 c0 -8 -5 -12 -10 -9 -6 4 -8 11 -5 16 9 14 15 11 15 -7z m88 -82 c22 -17 22 -19 7 -49 -24 -48 -39 -56 -90 -49 -43 7 -45 9 -39 34 10 42 24 62 47 72 33 13 50 11 75 -8z m215 -10 c18 -20 40 -73 33 -80 -3 -2 -25 -7 -50 -9 -43 -5 -45 -5 -65 34 -18 37 -19 41 -3 56 21 22 65 22 85 -1z m204 -179 c-4 -3 -10 -3 -14 0 -3 4 0 7 7 7 7 0 10 -3 7 -7z m70 0 c-4 -3 -10 -3 -14 0 -3 4 0 7 7 7 7 0 10 -3 7 -7z m853 -23 c0 -5 -7 -7 -15 -4 -8 4 -15 8 -15 10 0 2 7 4 15 4 8 0 15 -4 15 -10z m47 3 c-4 -3 -10 -3 -14 0 -3 4 0 7 7 7 7 0 10 -3 7 -7z m40 0 c-4 -3 -10 -3 -14 0 -3 4 0 7 7 7 7 0 10 -3 7 -7z m908 -11 c-3 -3 -11 0 -18 7 -9 10 -8 11 6 5 10 -3 15 -9 12 -12z m82 11 c-4 -3 -10 -3 -14 0 -3 4 0 7 7 7 7 0 10 -3 7 -7z m-2000 -40 c-4 -3 -7 0 -7 7 0 7 3 10 7 7 3 -4 3 -10 0 -14z m2008 -3 c27 -30 7 -70 -35 -70 -42 0 -62 40 -35 70 10 11 26 20 35 20 9 0 25 -9 35 -20z m-1925 -21 c0 -13 -6 -19 -16 -17 -8 2 -14 8 -12 13 2 6 6 9 10 8 4 -2 4 5 1 14 -4 11 -3 14 5 9 7 -4 12 -16 12 -27z m897 14 c-4 -3 -7 0 -7 7 0 7 3 10 7 7 3 -4 3 -10 0 -14z m-1601 -2 c-3 -5 1 -14 9 -21 12 -10 15 -10 16 1 0 8 4 4 9 -8 5 -13 16 -23 25 -23 8 0 15 -4 15 -10 0 -11 -120 -83 -127 -76 -7 7 40 146 50 146 4 0 6 -4 3 -9z m1681 -33 c-3 -7 -5 -2 -5 12 0 14 2 19 5 13 2 -7 2 -19 0 -25z m-1060 5 c-4 -3 -7 0 -7 7 0 7 3 10 7 7 3 -4 3 -10 0 -14z m993 -3 c0 -11 -4 -20 -10 -20 -5 0 -10 9 -10 20 0 11 5 20 10 20 6 0 10 -9 10 -20z m-1084 -46 c14 -31 23 -58 20 -61 -4 -5 -82 32 -103 49 -12 10 -7 41 6 34 4 -3 13 -1 21 5 13 7 13 9 0 9 -13 0 -13 1 0 10 25 16 30 12 56 -46z m189 6 c-3 -5 -14 -10 -23 -9 -14 0 -13 2 3 9 27 11 27 11 20 0z"/>
 <path d="M1653 803 c4 -3 10 -3 14 0 3 4 0 7 -7 7 -7 0 -10 -3 -7 -7z"/>
 <path d="M1533 692 c-25 -4 -48 -35 -55 -74 -4 -20 -1 -28 8 -28 8 0 14 -6 14 -12 1 -7 9 -2 20 11 11 12 17 27 14 32 -3 5 0 8 8 7 9 -2 12 7 11 27 -2 20 0 25 6 16 7 -11 11 -10 19 6 11 20 4 22 -45 15z"/>
 <path d="M1397 679 c-9 -5 -22 -7 -27 -4 -15 9 -12 -1 9 -43 10 -20 29 -46 42 -57 12 -11 19 -15 16 -8 -4 6 0 16 9 21 20 11 14 48 -13 80 -14 17 -22 19 -36 11z"/>
 <path d="M2445 670 c4 -14 12 -29 17 -35 7 -7 8 -2 3 15 -4 14 -12 30 -17 35 -7 7 -8 2 -3 -15z"/>
 <path d="M2326 645 c-20 -31 -10 -33 15 -3 21 24 23 28 10 28 -5 0 -16 -11 -25 -25z"/>
 <path d="M2590 630 c-8 -5 -10 -10 -5 -10 6 0 17 5 25 10 8 5 11 10 5 10 -5 0 -17 -5 -25 -10z"/>
 <path d="M2263 613 c4 -3 10 -3 14 0 3 4 0 7 -7 7 -7 0 -10 -3 -7 -7z"/>
 <path d="M2460 590 c0 -7 3 -10 7 -7 3 4 3 10 0 14 -4 3 -7 0 -7 -7z"/>
 <path d="M2863 483 c4 -3 10 -3 14 0 3 4 0 7 -7 7 -7 0 -10 -3 -7 -7z"/>
 </g>
<g id="layer126" fill="#e2dee5" stroke="none">
 <path d="M0 600 l0 -600 1500 0 1500 0 0 600 0 600 -1500 0 -1500 0 0 -600z m1663 325 c9 -4 17 -15 17 -24 0 -10 18 -41 40 -70 60 -82 65 -177 15 -286 -22 -47 -50 -210 -39 -227 14 -22 -31 -4 -63 26 -58 51 -69 54 -199 52 l-121 -1 -42 -38 c-63 -57 -71 -52 -71 44 0 71 -4 90 -32 148 -52 109 -38 213 42 304 16 19 34 46 40 61 l10 27 193 -4 c105 -3 200 -8 210 -12z m-909 -15 c41 -21 48 -45 10 -37 -41 8 -59 -2 -37 -20 17 -14 16 -14 -5 -10 -14 4 -25 0 -29 -9 -4 -12 -8 -12 -26 1 -29 20 -70 19 -98 -4 -22 -18 -23 -19 -5 -46 20 -31 21 -30 -21 -38 -37 -7 -41 2 -18 37 20 30 2 54 -49 66 -35 8 -42 6 -68 -21 -36 -35 -38 -36 -38 -4 0 16 -6 25 -16 25 -8 0 -12 -5 -9 -10 6 -10 -17 -40 -30 -40 -4 0 -21 -12 -38 -26 -23 -19 -32 -22 -38 -12 -7 11 -12 11 -30 0 -19 -12 -20 -12 -14 10 4 13 23 41 41 63 18 22 44 52 56 68 l23 27 205 -3 c157 -2 212 -6 234 -17z m1820 9 c3 -3 2 -19 -3 -36 -8 -28 -5 -36 23 -70 43 -50 61 -86 85 -169 50 -171 73 -242 91 -281 36 -77 23 -92 -39 -45 -58 45 -171 112 -188 112 -13 0 -13 3 -3 15 8 10 21 13 33 9 16 -5 18 -4 8 7 -6 8 -23 28 -36 44 -14 17 -25 24 -25 16 0 -12 -3 -12 -17 1 -29 25 -51 28 -58 10 -6 -16 -7 -16 -19 1 -16 21 -35 22 -42 3 -3 -8 -12 -12 -20 -9 -7 3 -17 -2 -20 -11 -9 -23 -23 -20 -17 4 5 19 4 19 -26 4 -17 -8 -36 -12 -42 -8 -12 7 -10 -11 6 -63 6 -17 3 -24 -11 -30 -11 -3 -38 -22 -61 -42 -62 -54 -132 -101 -147 -101 -24 0 -26 28 -6 92 10 35 22 81 26 103 4 22 14 54 22 70 8 17 23 64 32 106 18 81 49 133 102 171 28 19 29 24 23 66 l-7 44 166 -4 c91 -2 167 -6 170 -9z m-2095 -178 c23 -17 23 -18 6 -52 -23 -45 -31 -49 -88 -46 -47 2 -47 2 -40 32 3 17 7 38 7 47 0 9 3 16 6 16 12 -2 40 15 35 21 -8 14 51 -1 74 -18z m232 -37 c12 -25 18 -48 15 -51 -3 -3 -25 -8 -48 -10 -47 -5 -55 0 -76 49 -15 36 6 58 54 58 32 0 37 -4 55 -46z m-164 -126 c-3 -7 -5 -2 -5 12 0 14 2 19 5 13 2 -7 2 -19 0 -25z m350 -25 c-4 -3 -10 -3 -14 0 -3 4 0 7 7 7 7 0 10 -3 7 -7z m80 1 c-3 -3 -12 -4 -19 -1 -8 3 -5 6 6 6 11 1 17 -2 13 -5z m843 -24 c0 -5 -7 -7 -15 -4 -8 4 -15 8 -15 10 0 2 7 4 15 4 8 0 15 -4 15 -10z m47 3 c-4 -3 -10 -3 -14 0 -3 4 0 7 7 7 7 0 10 -3 7 -7z m40 0 c-4 -3 -10 -3 -14 0 -3 4 0 7 7 7 7 0 10 -3 7 -7z m903 -3 c8 -5 11 -10 5 -10 -5 0 -17 5 -25 10 -8 5 -10 10 -5 10 6 0 17 -5 25 -10z m83 3 c-7 -2 -19 -2 -25 0 -7 3 -2 5 12 5 14 0 19 -2 13 -5z m-1996 -40 c-4 -3 -7 0 -7 7 0 7 3 10 7 7 3 -4 3 -10 0 -14z m2008 -3 c27 -30 7 -70 -35 -70 -42 0 -62 40 -35 70 10 11 26 20 35 20 9 0 25 -9 35 -20z m-2625 0 c0 -5 6 -10 14 -10 8 0 21 -9 29 -20 7 -10 24 -23 36 -28 21 -8 16 -13 -58 -54 -54 -31 -81 -42 -81 -33 0 25 44 155 52 155 4 0 8 -4 8 -10z m700 -21 c0 -13 -6 -19 -16 -17 -8 2 -14 8 -12 13 2 6 6 9 10 8 4 -2 4 5 1 14 -4 11 -3 14 5 9 7 -4 12 -16 12 -27z m905 21 c3 -5 1 -10 -4 -10 -6 0 -11 5 -11 10 0 6 2 10 4 10 3 0 8 -4 11 -10z m-1059 -134 l7 -29 -71 38 -72 37 28 29 c15 16 33 29 39 29 7 0 13 6 14 13 1 16 45 -79 55 -117z m1131 92 c-3 -7 -5 -2 -5 12 0 14 2 19 5 13 2 -7 2 -19 0 -25z m-1060 5 c-4 -3 -7 0 -7 7 0 7 3 10 7 7 3 -4 3 -10 0 -14z m993 -3 c0 -11 -4 -20 -10 -20 -5 0 -10 9 -10 20 0 11 5 20 10 20 6 0 10 -9 10 -20z m-895 -40 c-3 -5 -16 -10 -28 -9 -20 1 -20 2 3 9 14 4 26 8 28 9 2 1 0 -3 -3 -9z"/>
 <path d="M1486 633 c-4 -10 1 -24 15 -37 l22 -21 -16 24 c-8 13 -13 30 -10 37 3 8 3 14 0 14 -3 0 -8 -8 -11 -17z"/>
 <path d="M1416 618 c3 -5 10 -6 15 -3 13 9 11 12 -6 12 -8 0 -12 -4 -9 -9z"/>
 <path d="M1433 593 c4 -3 10 -3 14 0 3 4 0 7 -7 7 -7 0 -10 -3 -7 -7z"/>
 <path d="M536 874 c-5 -14 -4 -15 9 -4 17 14 19 20 6 20 -5 0 -12 -7 -15 -16z"/>
 <path d="M2863 483 c4 -3 10 -3 14 0 3 4 0 7 -7 7 -7 0 -10 -3 -7 -7z"/>
 </g>
<g id="layer127" fill="#f0e6dc" stroke="none">
 <path d="M0 600 l0 -600 1500 0 1500 0 0 600 0 600 -1500 0 -1500 0 0 -600z m1663 325 c9 -4 17 -15 17 -24 0 -10 18 -41 40 -70 60 -82 65 -177 15 -286 -22 -46 -50 -209 -39 -227 2 -3 0 -9 -5 -12 -5 -3 -28 12 -52 33 -24 21 -53 43 -64 48 -11 6 -74 10 -141 9 l-121 -1 -42 -38 c-63 -56 -71 -52 -71 42 0 67 -5 88 -32 147 -52 114 -38 216 42 307 16 19 34 46 40 62 l11 28 192 -6 c106 -3 200 -8 210 -12z m-909 -15 c41 -21 48 -45 10 -37 -41 8 -59 -2 -37 -20 17 -14 16 -14 -5 -10 -14 4 -25 0 -29 -9 -4 -12 -8 -12 -26 1 -29 20 -70 19 -98 -4 -22 -18 -23 -19 -5 -46 20 -31 21 -30 -21 -38 -37 -7 -41 2 -18 37 20 30 2 54 -49 66 -35 8 -42 6 -68 -21 -36 -35 -38 -36 -38 -4 0 16 -6 25 -16 25 -8 0 -12 -5 -9 -10 6 -10 -17 -40 -30 -40 -4 0 -21 -12 -38 -26 -23 -19 -32 -22 -38 -12 -7 11 -12 11 -30 0 -19 -12 -20 -12 -14 10 4 13 23 41 41 63 18 22 44 52 56 68 l23 27 205 -3 c157 -2 212 -6 234 -17z m1820 9 c3 -3 2 -19 -3 -36 -8 -28 -5 -36 23 -70 43 -49 61 -85 85 -169 53 -181 73 -242 91 -281 36 -77 22 -93 -39 -45 -58 44 -172 112 -188 112 -13 0 -13 3 -3 15 8 10 21 13 33 9 16 -5 18 -4 8 7 -6 8 -23 28 -36 44 -14 17 -25 24 -25 16 0 -12 -3 -12 -17 1 -29 25 -51 28 -58 10 -6 -16 -7 -16 -19 1 -16 21 -35 22 -42 3 -3 -8 -12 -12 -20 -9 -7 3 -17 -2 -20 -11 -9 -23 -23 -20 -17 4 5 19 4 19 -26 4 -17 -8 -36 -12 -42 -8 -12 7 -10 -11 6 -63 6 -18 2 -25 -16 -32 -13 -5 -33 -19 -44 -31 -11 -12 -42 -37 -70 -56 -27 -18 -60 -41 -72 -49 -20 -15 -22 -15 -32 3 -8 16 -6 36 9 84 10 35 22 83 26 108 4 25 14 55 22 67 8 13 22 58 32 102 18 83 49 135 102 173 30 21 33 43 13 92 -8 18 -1 18 163 14 94 -2 173 -6 176 -9z m-2087 -182 c13 -13 12 -20 -7 -56 l-21 -42 -55 2 -56 2 7 31 c3 17 7 39 8 48 1 9 4 16 7 16 12 -2 39 15 35 22 -8 13 67 -8 82 -23z m230 -38 l22 -44 -31 -8 c-54 -14 -81 -5 -100 33 -23 47 -23 49 14 64 44 19 68 7 95 -45z m-170 -121 c-3 -7 -5 -2 -5 12 0 14 2 19 5 13 2 -7 2 -19 0 -25z m474 -37 c34 -27 32 -86 -5 -117 -29 -25 -70 -32 -82 -13 -4 8 3 9 24 4 49 -10 78 27 72 90 -5 62 -127 59 -131 -3 -2 -31 3 -57 12 -60 5 -2 9 -8 9 -13 0 -17 -21 2 -30 27 -6 15 -6 34 0 50 7 18 7 30 0 38 -18 22 104 19 131 -3z m894 -11 c3 -6 -1 -7 -10 -4 -24 10 -83 -5 -87 -21 -2 -10 -6 -8 -14 8 -10 22 -9 23 48 24 31 1 60 -2 63 -7z m1012 -15 c16 -13 22 -25 16 -25 -7 0 -13 5 -13 10 0 17 -52 32 -87 25 -27 -5 -33 -11 -39 -42 -8 -41 2 -62 37 -80 18 -9 19 -13 7 -13 -10 0 -27 10 -38 23 -17 18 -21 30 -16 63 3 22 1 45 -4 50 -6 6 13 10 50 11 51 2 64 -2 87 -22z m-1948 -47 c1 -10 -5 -18 -13 -18 -19 0 -33 23 -18 28 7 2 12 13 13 25 0 21 1 21 9 2 5 -11 9 -28 9 -37z m977 -17 c-3 -19 -11 -39 -17 -45 -9 -8 -10 -6 -4 9 11 25 11 64 1 90 l-8 20 17 -20 c11 -14 15 -31 11 -54z m949 39 c27 -30 7 -70 -35 -70 -42 0 -62 40 -35 70 10 11 26 20 35 20 9 0 25 -9 35 -20z m-2625 0 c0 -5 6 -10 14 -10 8 0 21 -9 29 -20 7 -10 24 -23 36 -28 21 -8 16 -13 -58 -54 -62 -36 -81 -43 -81 -30 0 25 43 152 52 152 4 0 8 -4 8 -10z m1610 -24 c0 -19 -4 -38 -10 -41 -6 -4 -10 10 -10 34 0 23 5 41 10 41 6 0 10 -15 10 -34z m-1064 -110 l7 -29 -71 38 -72 37 28 29 c15 16 33 29 39 29 7 0 13 6 14 13 1 16 45 -79 55 -117z m2110 58 c-9 -13 -24 -24 -33 -24 -11 0 -8 6 11 21 15 12 27 31 27 47 2 25 2 25 6 4 3 -13 -3 -34 -11 -48z m-1129 39 c-4 -3 -7 0 -7 7 0 7 3 10 7 7 3 -4 3 -10 0 -14z m59 -57 c14 -4 24 -9 21 -12 -11 -11 -77 25 -77 43 0 15 2 15 15 -4 8 -11 26 -24 41 -27z m51 -3 c-4 -3 -10 -3 -14 0 -3 4 0 7 7 7 7 0 10 -3 7 -7z"/>
 <path d="M1486 633 c-4 -10 1 -24 15 -37 l22 -21 -16 24 c-8 13 -13 30 -10 37 3 8 3 14 0 14 -3 0 -8 -8 -11 -17z"/>
 <path d="M1416 618 c3 -5 10 -6 15 -3 13 9 11 12 -6 12 -8 0 -12 -4 -9 -9z"/>
 <path d="M1433 593 c4 -3 10 -3 14 0 3 4 0 7 -7 7 -7 0 -10 -3 -7 -7z"/>
 <path d="M536 874 c-5 -14 -4 -15 9 -4 17 14 19 20 6 20 -5 0 -12 -7 -15 -16z"/>
 <path d="M2863 483 c4 -3 10 -3 14 0 3 4 0 7 -7 7 -7 0 -10 -3 -7 -7z"/>
 </g>
<g id="layer128" fill="#fefdfd" stroke="none">
 <path d="M0 600 l0 -600 1500 0 1500 0 0 600 0 600 -1500 0 -1500 0 0 -600z m706 334 c58 -6 60 -8 101 -63 24 -31 52 -68 64 -83 41 -50 20 -155 -43 -219 -17 -17 -38 -74 -38 -103 0 -17 2 -18 10 -6 8 12 10 10 10 -10 0 -14 8 -46 17 -72 9 -26 15 -50 12 -52 -3 -3 -38 12 -79 32 -81 41 -100 69 -58 87 13 6 23 15 23 20 2 26 18 56 36 65 10 6 19 21 19 34 0 13 6 29 14 35 25 21 30 131 5 115 -5 -3 -9 2 -9 10 0 20 -7 20 -25 2 -8 -7 -11 -17 -7 -21 4 -5 2 -5 -5 -2 -6 4 -9 15 -6 26 3 13 -2 20 -17 24 -12 3 -19 10 -15 16 3 6 -1 11 -11 11 -13 0 -14 -3 -4 -15 8 -9 9 -15 2 -15 -6 0 -14 5 -17 10 -3 6 -12 10 -18 10 -7 0 0 -8 16 -18 15 -9 27 -21 27 -27 0 -5 5 -3 10 5 8 12 10 9 10 -13 0 -16 5 -37 10 -48 10 -17 7 -20 -20 -25 -16 -4 -30 -10 -30 -15 0 -20 -58 -9 -73 14 -12 18 -17 20 -29 9 -11 -11 -10 -12 7 -6 11 4 17 4 13 -1 -4 -4 0 -21 8 -37 8 -16 12 -33 9 -37 -3 -5 1 -12 7 -14 28 -11 -27 -32 -68 -26 -4 0 -11 -5 -15 -13 -7 -11 -11 -10 -20 2 -9 13 -7 72 4 150 3 14 2 17 0 7 -2 -9 -8 -15 -13 -12 -4 3 -11 -7 -15 -22 -3 -16 -12 -31 -18 -35 -9 -6 -9 -8 1 -8 6 0 12 -9 12 -19 0 -14 -5 -18 -21 -14 -12 3 -18 11 -15 19 3 9 -2 14 -14 14 -11 0 -20 6 -20 14 0 15 -30 26 -71 26 -19 0 -28 6 -32 21 -4 15 -2 19 9 15 8 -3 13 -2 9 3 -3 5 1 12 7 14 16 7 -10 27 -32 26 -11 -1 -10 -3 3 -6 9 -2 17 -9 17 -14 0 -6 -4 -8 -9 -5 -11 7 -33 -18 -30 -36 1 -7 1 -29 0 -48 -2 -33 -3 -34 -12 -11 -5 13 -12 21 -15 18 -8 -8 6 -67 16 -67 5 0 10 -6 13 -12 2 -7 3 -5 2 5 -2 9 -1 17 2 17 11 0 33 -30 33 -44 0 -9 6 -16 14 -16 7 0 19 -7 26 -15 11 -13 10 -14 -6 -9 -10 3 -5 -3 12 -14 17 -11 40 -22 51 -26 12 -4 26 -13 32 -20 9 -11 2 -12 -37 -8 -37 3 -59 -1 -93 -18 -24 -13 -46 -25 -49 -29 -10 -12 -73 -42 -78 -37 -3 3 0 28 7 56 37 167 37 146 2 195 -17 24 -38 66 -46 92 -15 47 -14 49 15 109 17 34 47 77 68 96 21 19 42 42 45 51 6 15 27 17 175 17 93 0 196 -3 228 -6z m917 -1 c65 -6 67 -7 67 -34 0 -15 5 -31 10 -34 6 -4 23 -25 38 -48 24 -37 27 -52 27 -127 0 -71 -4 -95 -28 -146 -19 -43 -29 -86 -33 -140 -8 -111 -7 -110 -57 -75 -24 16 -49 36 -56 45 -10 12 -36 15 -129 15 -65 0 -124 2 -132 5 -10 4 -30 -8 -55 -34 -21 -22 -47 -40 -57 -40 -16 0 -18 10 -18 76 0 66 -5 85 -32 143 -29 57 -33 75 -31 137 2 81 22 131 72 178 17 17 31 39 31 51 0 12 3 25 7 28 8 9 286 9 376 0z m952 -45 c-5 -38 -3 -46 25 -76 37 -38 63 -95 91 -194 49 -176 59 -206 83 -257 38 -83 24 -91 -62 -33 -129 86 -190 110 -207 82 -3 -5 -33 -10 -67 -10 -53 0 -59 2 -48 15 7 9 19 14 27 11 22 -9 76 5 64 17 -7 7 -15 6 -25 -2 -11 -9 -20 -10 -35 -1 -18 9 -25 7 -47 -15 -28 -28 -44 -32 -44 -11 0 8 -5 18 -12 22 -7 5 -9 2 -6 -7 5 -12 -2 -15 -30 -12 -30 2 -43 -4 -72 -31 -19 -18 -51 -42 -70 -52 -19 -10 -47 -29 -62 -43 -30 -26 -58 -23 -58 7 0 11 8 46 19 78 10 33 22 79 26 104 4 24 14 54 21 66 8 12 21 56 29 100 9 43 22 87 29 99 22 32 86 95 98 95 10 0 7 36 -7 73 -7 16 5 17 170 17 l176 0 -6 -42z m-1798 -195 c-4 -3 -7 0 -7 7 0 7 3 10 7 7 3 -4 3 -10 0 -14z m0 -30 c-4 -3 -7 0 -7 7 0 7 3 10 7 7 3 -4 3 -10 0 -14z m245 -120 c48 -57 14 -143 -57 -143 -51 0 -99 67 -77 107 7 11 7 24 1 35 -9 16 -4 18 54 18 48 0 68 -4 79 -17z m912 -19 c39 -39 30 -110 -17 -132 -31 -15 -61 -11 -91 11 -15 11 -19 26 -19 63 0 27 -3 54 -8 60 -15 18 117 17 135 -2z m990 -5 c20 -16 26 -30 26 -58 0 -45 -23 -69 -73 -78 -30 -5 -40 -1 -62 23 -23 25 -26 35 -21 71 4 32 2 44 -10 51 -11 6 5 9 49 10 52 1 71 -3 91 -19z m-2447 -76 c-4 -3 -10 -3 -14 0 -3 4 0 7 7 7 7 0 10 -3 7 -7z m180 -35 c-3 -8 -6 -5 -6 6 -1 11 2 17 5 13 3 -3 4 -12 1 -19z"/>
 <path d="M500 836 c0 -2 8 -10 18 -17 15 -13 16 -12 3 4 -13 16 -21 21 -21 13z"/>
 <path d="M456 815 c-23 -17 -14 -20 14 -5 16 9 19 7 17 -17 -1 -16 -6 -31 -12 -35 -5 -4 0 -6 13 -5 14 1 18 5 12 11 -13 13 -13 29 0 21 6 -4 7 2 1 16 -10 29 -21 32 -45 14z"/>
 <path d="M593 799 c4 -17 3 -19 -6 -10 -18 18 -28 13 -15 -9 7 -11 20 -18 28 -15 13 4 13 4 0 -8 -23 -19 -42 -57 -29 -57 5 0 7 -4 4 -10 -3 -6 1 -7 10 -3 13 4 14 8 4 14 -11 6 -9 15 9 38 23 31 22 81 0 81 -6 0 -8 -10 -5 -21z"/>
 <path d="M637 798 c2 -5 10 -8 18 -8 8 0 16 3 18 8 3 4 -5 7 -18 7 -13 0 -21 -3 -18 -7z"/>
 <path d="M760 770 c0 -7 3 -10 7 -7 3 4 3 10 0 14 -4 3 -7 0 -7 -7z"/>
 <path d="M530 747 c0 -2 6 -10 14 -16 11 -9 16 -9 22 1 4 7 4 10 -1 6 -4 -4 -14 -3 -22 3 -7 6 -13 9 -13 6z"/>
 <path d="M270 650 c0 -7 3 -10 7 -7 3 4 3 10 0 14 -4 3 -7 0 -7 -7z"/>
 <path d="M310 501 c0 -5 5 -13 10 -16 6 -3 10 -2 10 4 0 5 -4 13 -10 16 -5 3 -10 2 -10 -4z"/>
 <path d="M340 460 c0 -7 3 -10 7 -7 3 4 3 10 0 14 -4 3 -7 0 -7 -7z"/>
 <path d="M2340 500 c0 -7 3 -10 7 -7 3 4 3 10 0 14 -4 3 -7 0 -7 -7z"/>
 <path d="M2390 500 c0 -7 3 -10 7 -7 3 4 3 10 0 14 -4 3 -7 0 -7 -7z"/>
 <path d="M930 543 c-22 -9 -30 -24 -30 -59 0 -40 30 -67 72 -66 38 1 58 24 58 67 0 51 -47 78 -100 58z m49 -75 c1 -19 -24 -25 -34 -9 -3 5 0 22 7 36 11 24 13 25 19 8 4 -10 8 -26 8 -35z"/>
 <path d="M1831 504 c-24 -31 -24 -34 -11 -69 27 -72 145 -35 126 40 -15 59 -79 75 -115 29z m59 -38 c0 -19 -4 -38 -10 -41 -6 -4 -10 10 -10 34 0 23 5 41 10 41 6 0 10 -15 10 -34z"/>
 <path d="M2838 523 c-26 -7 -43 -59 -30 -89 22 -48 97 -51 121 -5 18 32 13 58 -15 80 -26 20 -41 23 -76 14z m70 -25 c26 -26 0 -88 -36 -88 -23 0 -52 30 -52 55 0 28 18 45 50 45 14 0 31 -5 38 -12z"/>
 </g>

</svg>